# Made using Asset Forge (www.assetforge.io) version 1.2.1 

mtllib hallway_end_06.mtl 

g floor_04_90

v 0.5 0 -0.5625
v 0.5625 0 0.5
v 0.5625 0 -0.5
v 0.5 0 0.5625
v -0.5 0 -0.5625
v -0.5 0 0.5625
v -0.5625 0 -0.5
v -0.5625 0 0.5
v 0.5 0.065 0.5625
v 0.5625 0.065 -0.5
v 0.5625 0.065 0.5
v 0.5 0.065 -0.5625
v -0.5 0.065 0.5625
v -0.5 0.065 -0.5625
v -0.5625 0.065 0.5
v -0.5625 0.065 -0.5
v -0.4375 0 0.5
v -0.4375 0 -0.5
v -1.5 0 -0.5625
v -1.5 0 0.5625
v -1.5625 0 -0.5
v -1.5625 0 0.5
v -0.4375 0.065 -0.5
v -0.4375 0.065 0.5
v -1.5 0.065 0.5625
v -1.5 0.065 -0.5625
v -1.5625 0.065 0.5
v -1.5625 0.065 -0.5
vn 0 -1 0
vn 0 1 0
vn 0 0 -1
vn 0.7071068 0 -0.7071068
vn 1 0 0
vn 0.7071068 0 0.7071068
vn -0.7071068 0 0.7071068
vn -1 0 0
vn -0.7071068 0 -0.7071068
vn 0 0 1
vt -0.5 0.5625
vt -0.5625 -0.5
vt -0.5625 0.5
vt -0.5 -0.5625
vt 0.5 0.5625
vt 0.5 -0.5625
vt 0.5625 0.5
vt 0.5625 -0.5
vt -0.5 0.065
vt 0.5 0
vt -0.5 0
vt 0.5 0.065
vt -0.5625 0
vt -0.5625 0.065
vt 0.5625 0
vt 0.5625 0.065
vt 0.4375 -0.5
vt 0.4375 0.5
vt 1.5 0.5625
vt 1.5 -0.5625
vt 1.5625 0.5
vt 1.5625 -0.5
vt 1.5 0
vt 1.5 0.065
vt 0.4375 0
vt 0.4375 0.065
vt -0.4375 0
vt -0.4375 0.065
vt -1.5625 0
vt -1.5 0.065
vt -1.5 0
vt -1.5625 0.065
vt 1.5625 0
vt 1.5625 0.065

usemtl stone (Instance) (Instance) (Instance)
usemap stone (Instance) (Instance) (Instance)
f 3/3/1 2/2/1 1/1/1
f 4/4/1 1/1/1 2/2/1
f 5/5/1 1/1/1 4/4/1
f 6/6/1 5/5/1 4/4/1
f 7/7/1 5/5/1 6/6/1
f 8/8/1 7/7/1 6/6/1
f 11/3/2 10/2/2 9/1/2
f 12/4/2 9/1/2 10/2/2
f 13/5/2 9/1/2 12/4/2
f 14/6/2 13/5/2 12/4/2
f 15/7/2 13/5/2 14/6/2
f 16/8/2 15/7/2 14/6/2
f 1/11/3 5/10/3 12/9/3
f 14/12/3 12/9/3 5/10/3
f 10/14/4 3/13/4 12/9/4
f 1/11/4 12/9/4 3/13/4
f 11/9/5 2/11/5 10/12/5
f 3/10/5 10/12/5 2/11/5
f 4/10/6 2/15/6 9/12/6
f 11/16/6 9/12/6 2/15/6
f 6/11/7 13/9/7 8/13/7
f 15/14/7 8/13/7 13/9/7
f 8/10/8 15/12/8 7/11/8
f 16/9/8 7/11/8 15/12/8
f 5/10/9 7/15/9 14/12/9
f 16/16/9 14/12/9 7/15/9
f 6/11/10 4/10/10 13/9/10
f 9/12/10 13/9/10 4/10/10
f 18/18/1 17/17/1 5/5/1
f 6/6/1 5/5/1 17/17/1
f 19/19/1 5/5/1 6/6/1
f 20/20/1 19/19/1 6/6/1
f 21/21/1 19/19/1 20/20/1
f 22/22/1 21/21/1 20/20/1
f 24/18/2 23/17/2 13/5/2
f 14/6/2 13/5/2 23/17/2
f 25/19/2 13/5/2 14/6/2
f 26/20/2 25/19/2 14/6/2
f 27/21/2 25/19/2 26/20/2
f 28/22/2 27/21/2 26/20/2
f 5/10/3 19/23/3 14/12/3
f 26/24/3 14/12/3 19/23/3
f 23/26/4 18/25/4 14/12/4
f 5/10/4 14/12/4 18/25/4
f 24/9/5 17/11/5 23/12/5
f 18/10/5 23/12/5 17/11/5
f 6/11/6 17/27/6 13/9/6
f 24/28/6 13/9/6 17/27/6
f 20/31/7 25/30/7 22/29/7
f 27/32/7 22/29/7 25/30/7
f 22/10/8 27/12/8 21/11/8
f 28/9/8 21/11/8 27/12/8
f 19/23/9 21/33/9 26/24/9
f 28/34/9 26/24/9 21/33/9
f 20/31/10 6/11/10 25/30/10
f 13/9/10 25/30/10 6/11/10
g corner_01_92

v -0.5 0.25 0.6025001
v -0.5 0 0.6025001
v -1.5 0.25 0.6024999
v -1.5 0 0.6024999
v -0.3975 0.25 0.5000001
v -1.6025 0.25 0.4999999
v -0.5 0.25 0.3975001
v -1.5 0.25 0.3975
v -0.5 0 0.3975001
v -1.5 0 0.3975
v -1.6025 0 0.4999999
v -0.3975 -4.511946E-17 0.5000001
v -1.6025 0.25 0.4999999
v -1.6025 0 0.4999999
v -1.6025 0.25 -0.5000001
v -1.6025 0 -0.5000001
v -1.5 0.25 -0.6025
v -1.3975 0.25 0.4999999
v -1.3975 0.25 -0.5
v -1.3975 0 0.4999999
v -1.3975 0 -0.5
v -1.5 0 -0.6025
v -1.5 -4.511946E-17 0.6024999
v -1.5 4.511947E-16 -0.5625001
v -1.5 1 -0.5625001
v -1.5625 7.219114E-16 -0.5000001
v -1.5625 1 -0.5000001
v -1.5 6.767919E-16 0.5624999
v -0.5 6.767919E-16 0.5625001
v -1.5625 4.060752E-16 0.4999999
v -0.4375 4.511946E-17 0.5000001
v -1.4375 6.993517E-16 0.4375
v -1.4375 7.219114E-16 -0.5000001
v -0.5 6.767919E-16 0.4375001
v -1.4375 1 -0.5000001
v -0.4375 1 0.5000001
v -0.5 1 0.5625001
v -0.5 1 0.4375001
v -1.4375 1 0.4375
v -1.5 1 0.5624999
v -1.5625 1 0.4999999
vn -1.192093E-07 0 1
vn 1.192093E-07 0 -1
vn -0.7071068 0 -0.7071069
vn -0.7071069 0 0.7071068
vn 0.7071069 0 -0.7071068
vn 0.7071068 0 0.7071069
vn -1 0 -8.742278E-08
vn 1 0 8.742278E-08
vn 0.7071068 0 -0.7071067
vn -0.7071067 0 -0.7071068
vn 0.7071067 0 0.7071068
vn -0.7071068 0 0.7071067
vn -1 0 -1.192093E-07
vn 1 0 1.192093E-07
vt -0.5 0.25
vt -1.5 0.25
vt -1.5 0
vt 0.5 0.6025001
vt 1.5 0.6024999
vt 0.3975 0.5000001
vt 1.6025 0.4999999
vt 0.5 0.3975001
vt 1.5 0.3975
vt 0.5 0.25
vt 1.5 0
vt 1.5 0.25
vt 1.5 -0.6024999
vt 0.5 -0.6025001
vt 1.6025 -0.4999999
vt 0.3975 -0.5000001
vt 0.5 -0.3975001
vt 1.5 -0.3975
vt 1.6025 0
vt 1.6025 0.25
vt 0.6024999 0.25
vt 0.6024999 0
vt 0.4999999 0.25
vt 0.4999999 0
vt 0.3975 -4.511946E-17
vt 0.3975 0.25
vt -0.3975 -4.511946E-17
vt -0.3975 0.25
vt -0.5000001 0.25
vt -0.5000001 0
vt 1.6025 0.4999999
vt 1.6025 -0.5000001
vt 1.5 -0.6025
vt 1.3975 0.4999999
vt 1.3975 -0.5
vt -0.4999999 0
vt -0.4999999 0.25
vt 1.6025 0.5000001
vt 1.6025 -0.4999999
vt 1.5 0.6025
vt 1.3975 -0.4999999
vt 1.3975 0.5
vt 0.6025 0
vt 0.6025 0.25
vt 1.6025 0.25
vt 1.6025 0
vt 1.5 0.25
vt 1.5 0
vt -1.5 -4.511946E-17
vt -1.3975 0
vt -1.3975 0.25
vt 0.6024999 -4.511946E-17
vt 1.5 4.511947E-16
vt 1.5 1
vt 1.5625 7.219114E-16
vt 1.5625 1
vt 1.5 -0.5624999
vt 0.5 -0.5625001
vt 1.5625 -0.4999999
vt 0.4375 -0.5000001
vt 1.4375 -0.4375
vt 1.5625 0.5000001
vt 1.4375 0.5000001
vt 1.5 0.5625001
vt 0.5 -0.4375001
vt 1.4375 7.219114E-16
vt 1.4375 1
vt -0.4375 1
vt -0.4375 4.511946E-17
vt -0.5 1
vt -0.5 6.767919E-16
vt -0.5000001 4.511946E-17
vt -0.5000001 1
vt -0.4375001 6.767919E-16
vt -0.4375001 1
vt 0.5 6.767919E-16
vt 0.5 1
vt 1.4375 6.993517E-16
vt 1.4375 1
vt 0.5 0.5625001
vt 1.5 0.5624999
vt 0.4375 0.5000001
vt 1.5625 0.4999999
vt 0.5 0.4375001
vt 1.4375 0.4375
vt 1.5625 -0.5000001
vt 1.4375 -0.5000001
vt 1.5 -0.5625001
vt -1.5 1
vt -1.5 6.767919E-16
vt -1.5625 1
vt -1.5625 4.060752E-16
vt 0.4999999 4.060752E-16
vt -0.5000001 7.219114E-16
vt 0.4999999 1
vt -0.4375 6.993517E-16
vt 0.5000001 7.219114E-16
vt 0.5000001 1

usemtl darkStone (Instance) (Instance) (Instance) (Instance) (Instance) (Instance) (Instance)
usemap darkStone (Instance) (Instance) (Instance) (Instance) (Instance) (Instance) (Instance)
f 31/36/11 30/11/11 29/35/11
f 30/11/11 31/36/11 32/37/11
f 33/40/2 31/39/2 29/38/2
f 31/39/2 33/40/2 34/41/2
f 34/41/2 33/40/2 35/42/2
f 34/41/2 35/42/2 36/43/2
f 38/45/12 35/44/12 37/10/12
f 35/44/12 38/45/12 36/46/12
f 39/49/1 30/48/1 32/47/1
f 30/48/1 39/49/1 40/50/1
f 40/50/1 39/49/1 37/51/1
f 37/51/1 39/49/1 38/52/1
f 39/53/13 36/46/13 38/45/13
f 36/46/13 39/53/13 34/54/13
f 34/57/14 32/56/14 31/55/14
f 32/56/14 34/57/14 39/58/14
f 37/10/15 33/60/15 40/59/15
f 33/60/15 37/10/15 35/44/15
f 33/62/16 30/11/16 40/61/16
f 30/11/16 33/62/16 29/35/16
f 43/63/17 42/58/17 41/57/17
f 42/58/17 43/63/17 44/64/17
f 31/39/2 43/66/2 41/65/2
f 43/66/2 31/39/2 45/67/2
f 45/67/2 31/39/2 46/68/2
f 45/67/2 46/68/2 47/69/2
f 49/10/18 46/71/18 48/70/18
f 46/71/18 49/10/18 47/44/18
f 50/74/1 42/73/1 44/72/1
f 42/73/1 50/74/1 51/47/1
f 51/47/1 50/74/1 48/75/1
f 48/75/1 50/74/1 49/76/1
f 50/77/19 47/44/19 49/10/19
f 47/44/19 50/77/19 45/78/19
f 45/81/20 44/80/20 43/79/20
f 44/80/20 45/81/20 50/82/20
f 48/84/21 31/36/21 51/83/21
f 31/36/21 48/84/21 46/85/21
f 31/55/22 42/58/22 51/86/22
f 42/58/22 31/55/22 41/57/22

usemtl lightStone (Instance) (Instance) (Instance) (Instance) (Instance) (Instance) (Instance)
usemap lightStone (Instance) (Instance) (Instance) (Instance) (Instance) (Instance) (Instance)
f 54/89/13 53/88/13 52/87/13
f 53/88/13 54/89/13 55/90/13
f 58/93/1 57/92/1 56/91/1
f 57/92/1 58/93/1 59/94/1
f 59/94/1 58/93/1 60/95/1
f 60/95/1 58/93/1 54/96/1
f 60/95/1 54/96/1 61/97/1
f 61/97/1 54/96/1 52/98/1
f 62/99/1 59/94/1 60/95/1
f 52/87/15 63/101/15 61/100/15
f 63/101/15 52/87/15 53/88/15
f 65/104/16 59/103/16 64/102/16
f 59/103/16 65/104/16 57/105/16
f 62/108/15 64/107/15 59/106/15
f 64/107/15 62/108/15 66/109/15
f 60/112/12 66/111/12 62/110/12
f 66/111/12 60/112/12 67/113/12
f 64/116/2 68/115/2 65/114/2
f 68/115/2 64/116/2 69/117/2
f 69/117/2 64/116/2 66/118/2
f 69/117/2 66/118/2 67/119/2
f 69/117/2 67/119/2 55/120/2
f 55/120/2 67/119/2 63/121/2
f 55/120/2 63/121/2 53/122/2
f 68/123/11 57/105/11 65/104/11
f 57/105/11 68/123/11 56/124/11
f 69/125/14 56/124/14 68/123/14
f 56/124/14 69/125/14 58/126/14
f 69/129/23 54/128/23 58/127/23
f 54/128/23 69/129/23 55/107/23
f 61/131/24 67/102/24 60/130/24
f 67/102/24 61/131/24 63/132/24
g wall_01_93

v 0.4375001 0 0.5000001
v 0.4375001 1 0.5000001
v 0.5 -2.707168E-16 0.5625001
v 0.5 1 0.5625001
v 0.5000001 -6.316725E-16 -0.5625001
v 0.5000001 1 -0.5625001
v 0.4375001 0 -0.5000001
v 0.4375001 1 -0.5000001
v 0.5625 1 0.5000001
v 0.5625 0 0.5000001
v 0.5625001 1 -0.5000001
v 0.5625001 0 -0.5000001
v 0.6025001 0.25 -0.5000001
v 0.6025001 0 -0.5000001
v 0.6025 0.25 0.5000001
v 0.6025 0 0.5000001
v 0.5000001 0.25 -0.6025001
v 0.5 0.25 0.6025001
v 0.3975001 0.25 -0.5000001
v 0.3975001 0.25 0.5000001
v 0.3975001 0 -0.5000001
v 0.3975001 0 0.5000001
v 0.5 0 0.6025001
v 0.5000001 -4.511946E-17 -0.6025001
vn -0.7071069 0 0.7071069
vn -0.7071069 0 -0.7071069
vn 0.7071069 0 0.7071069
vn 0.7071069 0 -0.7071069
vn 1 0 0
vn -1 0 0
vt 0.5000001 0
vt 0.5625001 -2.707168E-16
vt 0.5625001 1
vt -0.5000001 -6.316725E-16
vt -0.4375001 0
vt -0.5625001 1
vt -0.5625001 -2.707168E-16
vt -0.5625001 -0.5000001
vt -0.5625 0.5000001
vt -0.5000001 -0.5625001
vt -0.5000001 0.5625001
vt -0.4375001 -0.5000001
vt -0.4375001 0.5000001
vt -0.5625 -0.5000001
vt -0.5625001 0.5000001
vt -0.5000001 -0.5625001
vt -0.5000001 0.5625001
vt -0.4375001 -0.5000001
vt -0.4375001 0.5000001
vt -0.5625001 0
vt 0.5000001 0.25
vt -0.6025001 -0.5000001
vt -0.6025 0.5000001
vt -0.5000001 -0.6025001
vt -0.5000001 0.6025001
vt -0.3975001 -0.5000001
vt -0.3975001 0.5000001
vt -0.6025 -0.5000001
vt -0.6025001 0.5000001
vt -0.5000001 -0.6025001
vt -0.5000001 0.6025001
vt -0.3975001 0.5000001
vt -0.3975001 -0.5000001
vt 0.6025001 0
vt 0.6025001 0.25
vt 0.5000001 0.25
vt 0.5000001 0
vt -0.5000001 -4.511946E-17
vt -0.3975001 0
vt -0.3975001 0.25
vt 0.6025001 -4.511946E-17
vt 0.6025001 0.25

usemtl lightStone (Instance) (Instance) (Instance) (Instance) (Instance) (Instance) (Instance)
usemap lightStone (Instance) (Instance) (Instance) (Instance) (Instance) (Instance) (Instance)
f 72/134/25 71/132/25 70/133/25
f 71/132/25 72/134/25 73/135/25
f 76/137/26 75/107/26 74/136/26
f 75/107/26 76/137/26 77/109/26
f 73/138/27 79/64/27 78/107/27
f 79/64/27 73/138/27 72/139/27
f 75/142/2 78/141/2 80/140/2
f 78/141/2 75/142/2 73/143/2
f 73/143/2 75/142/2 77/144/2
f 73/143/2 77/144/2 71/145/2
f 72/148/1 81/147/1 79/146/1
f 81/147/1 72/148/1 74/149/1
f 74/149/1 72/148/1 70/150/1
f 74/149/1 70/150/1 76/151/1
f 80/138/28 74/136/28 75/107/28
f 74/136/28 80/138/28 81/152/28
f 78/107/29 81/133/29 80/132/29
f 81/133/29 78/107/29 79/64/29
f 70/133/30 77/107/30 76/64/30
f 77/107/30 70/133/30 71/132/30

usemtl darkStone (Instance) (Instance) (Instance) (Instance) (Instance) (Instance) (Instance)
usemap darkStone (Instance) (Instance) (Instance) (Instance) (Instance) (Instance) (Instance)
f 84/63/29 83/133/29 82/153/29
f 83/133/29 84/63/29 85/64/29
f 86/156/2 84/155/2 82/154/2
f 84/155/2 86/156/2 87/157/2
f 87/157/2 86/156/2 88/158/2
f 87/157/2 88/158/2 89/159/2
f 91/133/30 88/63/30 90/64/30
f 88/63/30 91/133/30 89/153/30
f 92/162/1 83/161/1 85/160/1
f 83/161/1 92/162/1 93/163/1
f 93/163/1 92/162/1 90/164/1
f 90/164/1 92/162/1 91/165/1
f 92/166/25 89/153/25 91/133/25
f 89/153/25 92/166/25 87/167/25
f 87/168/27 85/77/27 84/78/27
f 85/77/27 87/168/27 92/169/27
f 90/171/26 86/63/26 93/170/26
f 86/63/26 90/171/26 88/172/26
f 86/174/28 83/133/28 93/173/28
f 83/133/28 86/174/28 82/153/28
g door_02_94

v -0.1422565 0.25 0.6025
v -0.1422565 2.255973E-16 0.6025
v -0.5000001 0.25 0.6024999
v -0.5000001 0 0.6024999
v 0.1422564 0.25 0.6025
v 0.1422564 0.25 0.3975001
v 0.5 0.25 0.3975001
v 0.5 0 0.3975001
v 0.1422564 2.255973E-16 0.3975001
v -0.6025001 0 0.4999999
v -0.1422565 2.255973E-16 0.3975
v -0.5000001 0 0.3975
v -0.5000001 0.25 0.3975
v -0.6025001 0.25 0.4999999
v 0.6025 -4.511946E-17 0.5000001
v -0.1422565 0.25 0.3975
v 0.1422564 2.255973E-16 0.6025
v -0.1822565 -2.355956E-17 0.6125001
v -0.1822565 0.7545128 0.6125001
v -0.1822565 -8.014827E-32 0.3875
v -0.1822565 0.7545128 0.3875
v 0.1822564 0.7545128 0.6125001
v 0.1822564 0.7545128 0.3875
v 0.1822564 -2.355956E-17 0.6125001
v 0.1822564 -8.014827E-32 0.3875
v 0.2323148 -2.355956E-17 0.6125001
v 0.2323148 0.8045712 0.6125001
v -0.2323149 0.8045712 0.6125001
v -0.2323149 -2.355956E-17 0.6125001
v 0.2323148 0 0.5625001
v 0.2323148 0.8045712 0.5625001
v -0.2323149 0.8045712 0.5625
v -0.2323149 0 0.5625
v -0.232422 -4.007413E-32 0.3875
v -0.232422 0.8046783 0.3875
v 0.2324219 0.8046783 0.3875001
v 0.2324219 -4.007413E-32 0.3875001
v -0.232422 -4.007413E-32 0.4375
v -0.232422 0.8046783 0.4375
v 0.2324219 0.8046783 0.4375001
v 0.2324219 -4.007413E-32 0.4375001
v -0.5000001 0 0.4375
v -0.5000001 1 0.4375
v -0.5625001 -2.707168E-16 0.4999999
v -0.5625001 1 0.4999999
v 0.5625 -6.316725E-16 0.5000001
v 0.5625 1 0.5000001
v 0.5 0 0.4375001
v 0.5 1 0.4375001
v -0.5000001 1 0.5624999
v -0.5000001 0 0.5624999
v 0.5 0 0.5625001
v 0.1350256 0.04723082 0.5625001
v -0.1350257 0.04723082 0.5625001
v 0.1350256 0.04723082 0.5325001
v -0.1350257 0.04723082 0.5325001
v -0.1350257 0.707282 0.4675
v 0.1350256 0.707282 0.4675001
v -0.1350257 0.707282 0.4375001
v 0.1350256 0.707282 0.4375001
v 0.1822564 0.7545128 0.4375001
v 0.1350256 0.04723082 0.4375001
v 0.1822564 0 0.4375001
v -0.1822565 0 0.4375
v -0.1350257 0.04723082 0.4375001
v -0.1822565 0.7545128 0.4375
v 0.1822564 0.7545128 0.5625001
v -0.1822565 0.7545128 0.5625
v 0.1822564 0 0.5625001
v 0.1350256 0.707282 0.5625001
v -0.1350257 0.707282 0.5625001
v -0.1822565 0 0.5625
v -0.1350257 0.707282 0.5325001
v -0.1350257 0.04723082 0.4675
v 0.1350256 0.04723082 0.4675001
v 0.1350256 0.707282 0.5325001
v 0.05983867 0.6320952 0.5325001
v -0.05983879 0.6320952 0.5325001
v -0.05983879 0.4996741 0.5325001
v 0.05983867 0.4996741 0.5325001
v 0.05983867 0.4996741 0.4675001
v -0.05983879 0.4996741 0.4675001
v 0.05983867 0.6320952 0.4675001
v -0.05983879 0.6320952 0.4675001
vt -0.1422565 0.25
vt -0.1422565 2.255973E-16
vt -0.5 0.6025001
vt -0.1422564 0.6025
vt -0.1422564 0.3975001
vt -0.5 0.3975001
vt -0.1422564 2.255973E-16
vt -0.1422564 0.25
vt 0.5000001 -0.6024999
vt 0.1422565 -0.6025
vt 0.6025001 -0.4999999
vt 0.1422565 -0.3975
vt 0.5000001 -0.3975
vt -0.6025 -4.511946E-17
vt -0.6025 0.25
vt 0.6025 -4.511946E-17
vt 0.1422565 0.6025
vt 0.5000001 0.6024999
vt 0.1422565 0.3975
vt 0.6025001 0.4999999
vt 0.5000001 0.3975
vt 0.6025 2.255973E-16
vt 0.3975001 2.255973E-16
vt 0.3975001 0.25
vt -0.3975 2.255973E-16
vt -0.6025 2.255973E-16
vt -0.3975 0.25
vt 0.1422564 0.25
vt 0.1422564 2.255973E-16
vt 0.1422565 2.255973E-16
vt 0.1422565 0.25
vt -0.1422564 -0.6025
vt -0.5 -0.6025001
vt -0.1422564 -0.3975001
vt -0.5 -0.3975001
vt -0.6125001 -2.355956E-17
vt -0.6125001 0.7545128
vt -0.3875 -8.014827E-32
vt -0.3875 0.7545128
vt 0.1822565 -0.6125001
vt -0.1822564 -0.6125001
vt 0.1822565 -0.3875
vt -0.1822564 -0.3875
vt 0.6125001 -2.355956E-17
vt 0.3875 -8.014827E-32
vt 0.6125001 0.7545128
vt 0.3875 0.7545128
vt 0.2323148 -2.355956E-17
vt 0.1822564 0.7545128
vt 0.2323148 0.8045712
vt -0.2323149 0.8045712
vt -0.1822565 0.7545128
vt -0.1822565 -2.355956E-17
vt -0.2323149 -2.355956E-17
vt 0.1822564 -2.355956E-17
vt -0.6125001 0.8045712
vt -0.5625001 0.8045712
vt -0.2323148 0.6125001
vt 0.2323149 0.6125001
vt -0.2323148 0.5625001
vt 0.2323149 0.5625
vt 0.6125001 0.8045712
vt 0.5625 0.8045712
vt 0.1822565 -8.014827E-32
vt 0.1822565 0.7545128
vt 0.232422 -4.007413E-32
vt 0.232422 0.8046783
vt -0.1822564 0.7545128
vt -0.2324219 0.8046783
vt -0.1822564 -8.014827E-32
vt -0.2324219 -4.007413E-32
vt 0.4375 -4.007413E-32
vt 0.3875 -4.007413E-32
vt 0.4375 0.8046783
vt 0.3875 0.8046783
vt -0.2324219 0.4375001
vt 0.232422 0.4375
vt -0.2324219 0.3875001
vt 0.232422 0.3875
vt -0.3875001 -4.007413E-32
vt -0.4375001 -4.007413E-32
vt -0.3875001 0.8046783
vt -0.4375001 0.8046783
vt -0.5 0.5625001
vt 0.5000001 0.5624999
vt 0.5625001 0.4999999
vt -0.5 0.4375001
vt 0.5000001 0.4375
vt -0.2323148 -0.6125001
vt -0.2323148 -0.5625001
vt -0.2324219 -0.4375001
vt -0.5 -0.5625001
vt -0.2324219 -0.3875001
vt -0.5 -0.4375001
vt 0.5625 1
vt 0.5625 -6.316725E-16
vt 0.2323149 -0.6125001
vt 0.2323149 -0.5625
vt 0.232422 -0.4375
vt 0.5000001 -0.5624999
vt 0.5625001 -0.4999999
vt 0.5000001 -0.4375
vt 0.232422 -0.3875
vt 0.2323148 0
vt -0.2323149 0
vt -0.1350256 0.5625001
vt 0.1350257 0.5625001
vt -0.1350256 0.5325001
vt 0.1350257 0.5325001
vt 0.1350257 -0.4675
vt -0.1350256 -0.4675001
vt 0.1350257 -0.4375001
vt -0.1350256 -0.4375001
vt -0.1350256 0.04723082
vt -0.1822564 0
vt 0.1822565 0
vt 0.1350257 0.04723082
vt 0.1350257 0.707282
vt -0.1350256 0.707282
vt -0.1822564 0.5625001
vt 0.1822565 0.5625
vt -0.1822564 0.4375001
vt 0.1822565 0.4375
vt 0.1822564 0
vt 0.1350256 0.707282
vt -0.1350257 0.707282
vt -0.1350257 0.04723082
vt 0.1350256 0.04723082
vt -0.1822565 0
vt -0.4375001 0.7545128
vt -0.5625001 0.7545128
vt 0.1822565 -0.5625
vt -0.1822564 -0.5625001
vt 0.1822565 -0.4375
vt -0.1822564 -0.4375001
vt 0.5625 0.7545128
vt 0.4375 0.7545128
vt -0.5325001 0.04723082
vt -0.5625001 0.04723082
vt -0.5325001 0.707282
vt -0.5625001 0.707282
vt -0.4375001 0.04723082
vt -0.4675 0.04723082
vt -0.4375001 0.707282
vt -0.4675 0.707282
vt -0.1350256 0.4675001
vt 0.1350257 0.4675
vt -0.1350256 0.4375001
vt 0.1350257 0.4375001
vt 0.4675001 0.04723082
vt 0.4375001 0.04723082
vt 0.4675001 0.707282
vt 0.4375001 0.707282
vt 0.1350257 -0.5625001
vt -0.1350256 -0.5625001
vt 0.1350257 -0.5325001
vt -0.1350256 -0.5325001
vt 0.5625001 0.04723082
vt 0.5325001 0.04723082
vt 0.5625001 0.707282
vt 0.5325001 0.707282
vt 0.05983867 0.6320952
vt -0.05983879 0.6320952
vt -0.05983879 0.4996741
vt 0.05983867 0.4996741
vt -0.05983867 0.5325001
vt 0.05983879 0.5325001
vt -0.05983867 0.4675001
vt 0.05983879 0.4675001
vt 0.5325001 0.4996741
vt 0.4675001 0.4996741
vt 0.5325001 0.6320952
vt 0.4675001 0.6320952
vt -0.05983867 0.4996741
vt 0.05983879 0.4996741
vt 0.05983879 0.6320952
vt -0.05983867 0.6320952
vt -0.4675001 0.4996741
vt -0.5325001 0.4996741
vt -0.4675001 0.6320952
vt -0.5325001 0.6320952
vt 0.05983879 -0.5325001
vt -0.05983867 -0.5325001
vt 0.05983879 -0.4675001
vt -0.05983867 -0.4675001

usemtl darkStone (Instance) (Instance) (Instance) (Instance) (Instance) (Instance) (Instance)
usemap darkStone (Instance) (Instance) (Instance) (Instance) (Instance) (Instance) (Instance)
f 96/63/11 95/176/11 94/175/11
f 95/176/11 96/63/11 97/64/11
f 84/155/2 98/178/2 87/177/2
f 98/178/2 84/155/2 99/179/2
f 99/179/2 84/155/2 100/180/2
f 102/181/12 100/35/12 101/11/12
f 100/35/12 102/181/12 99/182/12
f 103/185/1 95/184/1 97/183/1
f 95/184/1 103/185/1 104/186/1
f 104/186/1 103/185/1 105/187/1
f 103/166/13 106/153/13 105/133/13
f 106/153/13 103/166/13 107/167/13
f 107/57/14 97/56/14 96/55/14
f 97/56/14 107/57/14 103/58/14
f 101/11/15 84/189/15 108/188/15
f 84/189/15 101/11/15 100/35/15
f 84/78/16 92/10/16 108/190/16
f 92/10/16 84/78/16 87/44/16
f 109/193/2 96/192/2 94/191/2
f 96/192/2 109/193/2 107/194/2
f 107/194/2 109/193/2 106/195/2
f 98/78/23 102/197/23 110/196/23
f 102/197/23 98/78/23 99/198/23
f 109/201/24 95/200/24 104/199/24
f 95/200/24 109/201/24 94/189/24
f 98/202/11 92/10/11 87/44/11
f 92/10/11 98/202/11 110/203/11
f 105/133/12 109/205/12 104/204/12
f 109/205/12 105/133/12 106/153/12
f 102/208/1 92/207/1 110/206/1
f 92/207/1 102/208/1 108/160/1
f 108/160/1 102/208/1 101/209/1
f 113/212/24 112/211/24 111/210/24
f 112/211/24 113/212/24 114/213/24
f 114/216/1 115/215/1 112/214/1
f 115/215/1 114/216/1 116/217/1
f 115/220/23 118/219/23 117/218/23
f 118/219/23 115/220/23 116/221/23
f 120/224/11 115/223/11 119/222/11
f 115/223/11 120/224/11 121/225/11
f 115/223/11 121/225/11 112/226/11
f 112/226/11 121/225/11 111/227/11
f 111/227/11 121/225/11 122/228/11
f 117/229/11 119/222/11 115/223/11
f 123/152/24 120/230/24 119/210/24
f 120/230/24 123/152/24 124/231/24
f 124/234/2 121/233/2 120/232/2
f 121/233/2 124/234/2 125/235/2
f 121/236/23 126/15/23 122/218/23
f 126/15/23 121/236/23 125/237/23
f 127/240/12 114/239/12 113/238/12
f 128/241/12 114/239/12 127/240/12
f 128/241/12 116/242/12 114/239/12
f 129/243/12 116/242/12 128/241/12
f 129/243/12 118/244/12 116/242/12
f 118/244/12 129/243/12 130/245/12
f 132/248/23 127/247/23 131/246/23
f 127/247/23 132/248/23 128/249/23
f 129/252/2 132/251/2 133/250/2
f 132/251/2 129/252/2 128/253/2
f 129/256/24 134/255/24 130/254/24
f 134/255/24 129/256/24 133/257/24

usemtl lightStone (Instance) (Instance) (Instance) (Instance) (Instance) (Instance) (Instance)
usemap lightStone (Instance) (Instance) (Instance) (Instance) (Instance) (Instance) (Instance)
f 137/134/13 136/132/13 135/133/13
f 136/132/13 137/134/13 138/135/13
f 141/137/15 140/107/15 139/136/15
f 140/107/15 141/137/15 142/109/15
f 138/138/14 144/64/14 143/107/14
f 144/64/14 138/138/14 137/139/14
f 140/141/2 143/259/2 73/258/2
f 143/259/2 140/141/2 138/260/2
f 138/260/2 140/141/2 142/261/2
f 138/260/2 142/261/2 136/262/2
f 118/217/1 119/263/1 117/215/1
f 119/263/1 118/217/1 123/264/1
f 123/264/1 118/217/1 134/265/1
f 123/264/1 134/265/1 145/266/1
f 145/266/1 134/265/1 139/146/1
f 134/265/1 118/217/1 130/267/1
f 141/268/1 139/146/1 134/265/1
f 73/111/16 139/270/16 140/269/16
f 139/270/16 73/111/16 145/10/16
f 122/271/1 113/216/1 111/214/1
f 113/216/1 122/271/1 126/272/1
f 113/216/1 126/272/1 131/273/1
f 131/273/1 126/272/1 144/274/1
f 131/273/1 144/274/1 137/275/1
f 131/273/1 137/275/1 135/276/1
f 113/216/1 131/273/1 127/277/1
f 135/133/12 132/241/12 131/240/12
f 136/132/12 132/241/12 135/133/12
f 136/132/12 133/243/12 132/241/12
f 142/104/12 133/243/12 136/132/12
f 142/104/12 134/245/12 133/243/12
f 134/245/12 142/104/12 141/11/12
f 123/278/11 145/10/11 124/224/11
f 73/111/11 124/224/11 145/10/11
f 124/224/11 73/111/11 143/107/11
f 124/224/11 143/107/11 125/225/11
f 125/225/11 143/107/11 126/279/11
f 126/279/11 143/107/11 144/64/11

usemtl stone (Instance) (Instance) (Instance)
usemap stone (Instance) (Instance) (Instance)
f 148/282/2 147/281/2 146/280/2
f 147/281/2 148/282/2 149/283/2
f 152/286/1 151/285/1 150/284/1
f 151/285/1 152/286/1 153/287/1
f 156/289/12 155/288/12 154/242/12
f 155/288/12 156/289/12 157/290/12
f 155/288/12 157/290/12 158/291/12
f 158/291/12 157/290/12 152/292/12
f 153/293/12 154/242/12 155/288/12
f 154/242/12 153/293/12 159/239/12
f 159/239/12 153/293/12 152/292/12
f 159/239/12 152/292/12 157/290/12
f 154/296/2 161/295/2 160/294/2
f 161/295/2 154/296/2 159/297/2
f 160/223/11 163/299/11 162/298/11
f 163/299/11 160/223/11 161/226/11
f 163/299/11 161/226/11 164/300/11
f 164/300/11 161/226/11 147/301/11
f 146/302/11 162/298/11 163/299/11
f 162/298/11 146/302/11 165/303/11
f 165/303/11 146/302/11 147/301/11
f 165/303/11 147/301/11 161/226/11
f 154/304/24 162/152/24 156/137/24
f 162/152/24 154/304/24 160/305/24
f 157/308/1 162/307/1 165/306/1
f 162/307/1 157/308/1 156/309/1
f 161/310/23 157/25/23 165/15/23
f 157/25/23 161/310/23 159/311/23
f 166/314/24 147/313/24 149/312/24
f 147/313/24 166/314/24 164/315/24
f 152/318/24 167/317/24 158/316/24
f 167/317/24 152/318/24 150/319/24
f 155/322/2 167/321/2 168/320/2
f 167/321/2 155/322/2 158/323/2
f 151/326/23 155/325/23 168/324/23
f 155/325/23 151/326/23 153/327/23
f 166/330/1 163/329/1 164/328/1
f 163/329/1 166/330/1 169/331/1
f 163/334/23 148/333/23 146/332/23
f 148/333/23 163/334/23 169/335/23

usemtl wood (Instance) (Instance) (Instance) (Instance) (Instance) (Instance) (Instance)
usemap wood (Instance) (Instance) (Instance) (Instance) (Instance) (Instance) (Instance)
f 169/299/11 170/336/11 148/302/11
f 170/336/11 169/299/11 166/300/11
f 170/336/11 166/300/11 171/337/11
f 171/337/11 166/300/11 172/338/11
f 173/339/11 148/302/11 170/336/11
f 148/302/11 173/339/11 149/301/11
f 149/301/11 173/339/11 172/338/11
f 149/301/11 172/338/11 166/300/11
f 174/342/2 172/341/2 173/340/2
f 172/341/2 174/342/2 175/343/2
f 170/346/23 174/345/23 173/344/23
f 174/345/23 170/346/23 176/347/23
f 168/288/12 174/348/12 151/293/12
f 174/348/12 168/288/12 167/291/12
f 174/348/12 167/291/12 175/349/12
f 175/349/12 167/291/12 177/350/12
f 176/351/12 151/293/12 174/348/12
f 151/293/12 176/351/12 150/292/12
f 150/292/12 176/351/12 177/350/12
f 150/292/12 177/350/12 167/291/12
f 177/354/24 172/353/24 175/352/24
f 172/353/24 177/354/24 171/355/24
f 177/358/1 170/357/1 171/356/1
f 170/357/1 177/358/1 176/359/1
