# Made using Asset Forge (www.assetforge.io) version 1.2.1 

mtllib hallway_short_07.mtl 

g wall_03_101

v -1.6625 1 0.25
v -1.6625 1 -0.2500002
v -1.5625 1 0.5000001
v -1.5625 1 -0.5000002
v -1.5375 1 0.2499999
v -1.5 1 0.5625001
v -1.4375 1 0.5
v -1.5375 1 -0.2500002
v -1.5 1 -0.5625002
v -1.4375 1 -0.5000002
v -1.6625 5.263937E-17 0.25
v -1.6625 4.511946E-17 -0.2500002
v -1.5375 4.511946E-17 0.2499999
v -1.5375 5.263937E-17 -0.2500002
v -1.5 -6.316725E-16 0.5625001
v -1.4375 0 0.5
v -1.5625 0 0.5000001
v -1.4375 0 -0.5000002
v -1.5 -2.707168E-16 -0.5625002
v -1.5625 0 -0.5000002
v -1.7025 0.25 -0.2500002
v -1.7025 1.500435E-17 -0.2500002
v -1.6025 0.25 -0.5000002
v -1.6025 0 -0.5000002
v -1.7025 0.25 0.2499999
v -1.6025 0.25 0.5000001
v -1.5 0.25 0.6025
v -1.5 0.25 -0.6025002
v -1.4975 0.25 0.25
v -1.3975 0.25 0.5
v -1.4975 0.25 -0.2500002
v -1.3975 0.25 -0.5000002
v -1.4975 1.69198E-17 -0.2500002
v -1.3975 0 -0.5000002
v -1.5 0 -0.6025002
v -1.4975 2.349972E-17 0.25
v -1.5 -4.511946E-17 0.6025
v -1.6025 0 0.5000001
v -1.7025 2.115862E-17 0.2499999
v -1.3975 0 0.5
vn 0 1 0
vn -1 0 -2.384186E-07
vn 1 0 2.384186E-07
vn 0.7071068 0 0.707107
vn -0.707107 0 0.7071068
vn 0.928477 0 -0.3713906
vn 0.707107 0 -0.7071068
vn -0.928477 0 0.3713906
vn 0.9284769 0 0.3713909
vn -0.7071068 0 -0.707107
vn -0.9284769 0 -0.3713909
vn 0 -1 0
vt 1.6625 0.25
vt 1.6625 -0.2500002
vt 1.5625 0.5
vt 1.5625 -0.5000002
vt 1.5375 0.25
vt 1.5 0.5625
vt 1.4375 0.5
vt 1.5375 -0.2500002
vt 1.5 -0.5625002
vt 1.4375 -0.5000002
vt 0.25 1
vt 0.25 5.263937E-17
vt -0.2500002 1
vt -0.2500002 4.511946E-17
vt -0.25 4.511946E-17
vt -0.25 1
vt 0.2500002 5.263937E-17
vt 0.2500002 1
vt -1.5 -6.316725E-16
vt -1.5 1
vt -1.4375 0
vt -1.4375 1
vt -1.5625 1
vt -1.5625 0
vt -0.5 0
vt -0.5 1
vt 0.5000002 0
vt 0.5000002 1
vt 0.5625002 -2.707168E-16
vt 0.5625002 1
vt 0.5 1
vt 0.5 0
vt 1.5625 1
vt 1.5625 0
vt 1.5 1
vt 1.5 -2.707168E-16
vt -0.5000002 1
vt -0.5000002 0
vt 1.6625 0.2500002
vt 1.6625 -0.25
vt 1.5625 0.5000002
vt 1.5625 -0.5
vt 1.5375 0.2500002
vt 1.5 0.5625002
vt 1.4375 0.5000002
vt 1.5375 -0.25
vt 1.5 -0.5625
vt 1.4375 -0.5
vt -0.2500002 0.25
vt -0.2500002 1.500435E-17
vt -0.5000002 0.25
vt 1.7025 0.2499999
vt 1.7025 -0.2500002
vt 1.6025 0.5
vt 1.6025 -0.5000002
vt 1.5 0.6025
vt 1.5 -0.6025002
vt 1.4975 0.25
vt 1.3975 0.5
vt 1.4975 -0.2500002
vt 1.3975 -0.5000002
vt 0.2500002 1.69198E-17
vt 0.2500002 0.25
vt 0.5000002 0.25
vt 1.5 0.6025002
vt 1.4975 0.2500002
vt 1.3975 0.5000002
vt 1.4975 -0.25
vt 1.5 -0.6025
vt 1.6025 -0.5
vt 1.6025 0.5000002
vt 1.7025 -0.2499999
vt 1.7025 0.2500002
vt 1.3975 -0.5
vt 0.6025002 0
vt 0.6025002 0.25
vt 1.6025 0.25
vt 1.6025 0
vt 1.5 0.25
vt 1.5 0
vt -1.5 -4.511946E-17
vt -1.5 0.25
vt -1.3975 0
vt -1.3975 0.25
vt 0.6025 -4.511946E-17
vt 0.6025 0.25
vt 0.5 0.25
vt 0.2499999 0.25
vt 0.2499999 2.115862E-17
vt -0.25 2.349972E-17
vt -0.25 0.25
vt -0.5 0.25

usemtl lightStone (Instance) (Instance) (Instance) (Instance) (Instance) (Instance) (Instance)
usemap lightStone (Instance) (Instance) (Instance) (Instance) (Instance) (Instance) (Instance)
f 3/3/1 2/2/1 1/1/1
f 2/2/1 3/3/1 4/4/1
f 4/4/1 3/3/1 5/5/1
f 5/5/1 3/3/1 6/6/1
f 5/5/1 6/6/1 7/7/1
f 8/8/1 4/4/1 5/5/1
f 4/4/1 8/8/1 9/9/1
f 9/9/1 8/8/1 10/10/1
f 2/13/2 11/12/2 1/11/2
f 11/12/2 2/13/2 12/14/2
f 14/17/3 5/16/3 13/15/3
f 5/16/3 14/17/3 8/18/3
f 16/21/4 6/20/4 15/19/4
f 6/20/4 16/21/4 7/22/4
f 3/23/5 15/19/5 6/20/5
f 15/19/5 3/23/5 17/24/5
f 13/15/6 7/26/6 16/25/6
f 7/26/6 13/15/6 5/16/6
f 19/29/7 10/28/7 18/27/7
f 10/28/7 19/29/7 9/30/7
f 1/11/8 17/32/8 3/31/8
f 17/32/8 1/11/8 11/12/8
f 18/27/9 8/18/9 14/17/9
f 8/18/9 18/27/9 10/28/9
f 9/35/10 20/34/10 4/33/10
f 20/34/10 9/35/10 19/36/10
f 4/37/11 12/14/11 2/13/11
f 12/14/11 4/37/11 20/38/11
f 20/41/12 11/40/12 12/39/12
f 11/40/12 20/41/12 17/42/12
f 17/42/12 20/41/12 14/43/12
f 14/43/12 20/41/12 19/44/12
f 14/43/12 19/44/12 18/45/12
f 13/46/12 17/42/12 14/43/12
f 17/42/12 13/46/12 15/47/12
f 15/47/12 13/46/12 16/48/12

usemtl darkStone (Instance) (Instance) (Instance) (Instance) (Instance) (Instance) (Instance)
usemap darkStone (Instance) (Instance) (Instance) (Instance) (Instance) (Instance) (Instance)
f 23/51/11 22/50/11 21/49/11
f 22/50/11 23/51/11 24/38/11
f 26/54/1 21/53/1 25/52/1
f 21/53/1 26/54/1 23/55/1
f 23/55/1 26/54/1 27/56/1
f 23/55/1 27/56/1 28/57/1
f 28/57/1 27/56/1 29/58/1
f 29/58/1 27/56/1 30/59/1
f 31/60/1 28/57/1 29/58/1
f 28/57/1 31/60/1 32/61/1
f 34/27/9 31/63/9 33/62/9
f 31/63/9 34/27/9 32/64/9
f 34/67/12 33/66/12 35/65/12
f 36/68/12 35/65/12 33/66/12
f 37/69/12 35/65/12 36/68/12
f 38/70/12 35/65/12 37/69/12
f 38/70/12 24/71/12 35/65/12
f 39/72/12 24/71/12 38/70/12
f 24/71/12 39/72/12 22/73/12
f 37/69/12 36/68/12 40/74/12
f 35/75/7 32/64/7 34/27/7
f 32/64/7 35/75/7 28/76/7
f 28/79/10 24/78/10 23/77/10
f 24/78/10 28/79/10 35/80/10
f 40/83/4 27/82/4 37/81/4
f 27/82/4 40/83/4 30/84/4
f 27/86/5 38/32/5 37/85/5
f 38/32/5 27/86/5 26/87/5
f 21/49/2 39/89/2 25/88/2
f 39/89/2 21/49/2 22/50/2
f 25/88/8 38/32/8 26/87/8
f 38/32/8 25/88/8 39/89/8
f 33/62/3 29/91/3 36/90/3
f 29/91/3 33/62/3 31/63/3
f 36/90/6 30/92/6 40/25/6
f 30/92/6 36/90/6 29/91/6
g floor_05_105

v 0.5 0 -0.5625
v 0.5625 0 0.5
v 0.5625 0 -0.5
v 0.5 0 0.5625
v -0.5 0 -0.5625
v -0.5 0 0.5625
v -0.5625 0 -0.5
v -0.5625 0 0.5
v 0.5 0.065 0.5625
v 0.5625 0.065 -0.5
v 0.5625 0.065 0.5
v 0.5 0.065 -0.5625
v -0.5 0.065 0.5625
v -0.5 0.065 -0.5625
v -0.5625 0.065 0.5
v -0.5625 0.065 -0.5
v -1.5625 0 0.5
v -1.6625 0 -0.25
v -1.6625 0 0.25
v -1.5625 0 -0.5
v -1.5 0 0.5625
v -1.5 0 -0.5625
v -0.4375 0 0.5
v -0.4375 0 -0.5
v -1.5625 0.065 -0.5
v -1.6625 0.065 0.25
v -1.6625 0.065 -0.25
v -1.5625 0.065 0.5
v -1.5 0.065 -0.5625
v -1.5 0.065 0.5625
v -0.4375 0.065 -0.5
v -0.4375 0.065 0.5
vn 0 0 -1
vn 0.7071068 0 -0.7071068
vn 1 0 0
vn 0.7071068 0 0.7071068
vn -0.7071068 0 0.7071068
vn -1 0 0
vn -0.7071068 0 -0.7071068
vn 0 0 1
vn -0.9284768 0 0.3713907
vn -0.9284768 0 -0.3713907
vt -0.5 0.5625
vt -0.5625 -0.5
vt -0.5625 0.5
vt -0.5 -0.5625
vt 0.5 0.5625
vt 0.5 -0.5625
vt 0.5625 0.5
vt 0.5625 -0.5
vt -0.5 0.065
vt 0.5 0.065
vt -0.5625 0
vt -0.5625 0.065
vt 0.5625 0
vt 0.5625 0.065
vt 1.5625 -0.5
vt 1.6625 0.25
vt 1.6625 -0.25
vt 1.5625 0.5
vt 1.5 -0.5625
vt 1.5 0.5625
vt 0.4375 -0.5
vt 0.4375 0.5
vt -1.5 0.065
vt -1.5 0
vt -1.5625 0
vt -1.5625 0.065
vt 0.25 0
vt 0.25 0.065
vt 1.5 0.065
vt 1.5625 0
vt 1.5 0
vt 1.5625 0.065
vt 0.4375 0
vt 0.4375 0.065
vt -0.4375 0
vt -0.4375 0.065
vt -0.25 0
vt -0.25 0.065

usemtl stone (Instance) (Instance) (Instance)
usemap stone (Instance) (Instance) (Instance)
f 43/95/12 42/94/12 41/93/12
f 44/96/12 41/93/12 42/94/12
f 45/97/12 41/93/12 44/96/12
f 46/98/12 45/97/12 44/96/12
f 47/99/12 45/97/12 46/98/12
f 48/100/12 47/99/12 46/98/12
f 51/95/1 50/94/1 49/93/1
f 52/96/1 49/93/1 50/94/1
f 53/97/1 49/93/1 52/96/1
f 54/98/1 53/97/1 52/96/1
f 55/99/1 53/97/1 54/98/1
f 56/100/1 55/99/1 54/98/1
f 41/25/13 45/32/13 52/101/13
f 54/102/13 52/101/13 45/32/13
f 50/104/14 43/103/14 52/101/14
f 41/25/14 52/101/14 43/103/14
f 51/101/15 42/25/15 50/102/15
f 43/32/15 50/102/15 42/25/15
f 44/32/16 42/105/16 49/102/16
f 51/106/16 49/102/16 42/105/16
f 46/25/17 53/101/17 48/103/17
f 55/104/17 48/103/17 53/101/17
f 48/32/18 55/102/18 47/25/18
f 56/101/18 47/25/18 55/102/18
f 45/32/19 47/105/19 54/102/19
f 56/106/19 54/102/19 47/105/19
f 46/25/20 44/32/20 53/101/20
f 49/102/20 53/101/20 44/32/20
f 59/109/12 58/108/12 57/107/12
f 60/110/12 57/107/12 58/108/12
f 61/111/12 57/107/12 60/110/12
f 62/112/12 61/111/12 60/110/12
f 46/98/12 61/111/12 62/112/12
f 45/97/12 46/98/12 62/112/12
f 63/113/12 46/98/12 45/97/12
f 64/114/12 63/113/12 45/97/12
f 67/109/1 66/108/1 65/107/1
f 68/110/1 65/107/1 66/108/1
f 69/111/1 65/107/1 68/110/1
f 70/112/1 69/111/1 68/110/1
f 54/98/1 69/111/1 70/112/1
f 53/97/1 54/98/1 70/112/1
f 71/113/1 54/98/1 53/97/1
f 72/114/1 71/113/1 53/97/1
f 61/116/20 46/25/20 70/115/20
f 53/101/20 70/115/20 46/25/20
f 68/118/17 57/117/17 70/115/17
f 61/116/17 70/115/17 57/117/17
f 66/120/21 59/119/21 68/102/21
f 57/32/21 68/102/21 59/119/21
f 62/123/19 60/122/19 69/121/19
f 65/124/19 69/121/19 60/122/19
f 45/32/14 54/102/14 64/125/14
f 71/126/14 64/125/14 54/102/14
f 64/32/15 71/102/15 63/25/15
f 72/101/15 63/25/15 71/102/15
f 46/25/16 63/127/16 53/101/16
f 72/128/16 53/101/16 63/127/16
f 45/32/13 62/123/13 54/102/13
f 69/121/13 54/102/13 62/123/13
f 67/130/18 58/129/18 66/120/18
f 59/119/18 66/120/18 58/129/18
f 65/101/22 60/25/22 67/130/22
f 58/129/22 67/130/22 60/25/22
g door_02_107

v 0.6025001 0.25 0.1422564
v 0.6025001 2.255973E-16 0.1422564
v 0.6025 0.25 0.5000001
v 0.6025 0 0.5000001
v 0.6025001 0.25 -0.5000001
v 0.6025001 0.25 -0.1422565
v 0.5000001 0.25 -0.6025001
v 0.3975002 0.25 -0.1422565
v 0.3975001 0.25 -0.5000001
v 0.3975001 0 -0.5000001
v 0.3975002 2.255973E-16 -0.1422565
v 0.5 0 0.6025001
v 0.3975001 2.255973E-16 0.1422565
v 0.3975001 0 0.5000001
v 0.3975001 0.25 0.5000001
v 0.5 0.25 0.6025001
v 0.5000001 -4.511946E-17 -0.6025001
v 0.6025001 0 -0.5000001
v 0.3975001 0.25 0.1422565
v 0.6025001 2.255973E-16 -0.1422565
v 0.6125001 -2.355956E-17 0.1822565
v 0.6125001 0.7545128 0.1822565
v 0.3875 -8.014827E-32 0.1822565
v 0.3875 0.7545128 0.1822565
v 0.6125001 0.7545128 -0.1822565
v 0.3875 0.7545128 -0.1822565
v 0.6125001 -2.355956E-17 -0.1822565
v 0.3875 -8.014827E-32 -0.1822565
v 0.6125001 -2.355956E-17 -0.2323149
v 0.6125001 0.8045712 -0.2323149
v 0.6125002 0.8045712 0.2323149
v 0.6125002 -2.355956E-17 0.2323149
v 0.5625001 0 -0.2323149
v 0.5625001 0.8045712 -0.2323149
v 0.5625001 0.8045712 0.2323149
v 0.5625001 0 0.2323149
v 0.3875001 -4.007413E-32 0.232422
v 0.3875001 0.8046783 0.232422
v 0.3875001 0.8046783 -0.232422
v 0.3875001 -4.007413E-32 -0.232422
v 0.4375001 -4.007413E-32 0.2324219
v 0.4375001 0.8046783 0.2324219
v 0.4375001 0.8046783 -0.232422
v 0.4375001 -4.007413E-32 -0.232422
v 0.4375001 0 0.5000001
v 0.4375001 1 0.5000001
v 0.5 -2.707168E-16 0.5625001
v 0.5 1 0.5625001
v 0.5000001 -6.316725E-16 -0.5625001
v 0.5000001 1 -0.5625001
v 0.4375001 0 -0.5000001
v 0.4375001 1 -0.5000001
v 0.5625 1 0.5000001
v 0.5625 0 0.5000001
v 0.5625001 1 -0.5000001
v 0.5625001 0 -0.5000001
v 0.5625002 0.04723082 -0.1350257
v 0.5625002 0.04723082 0.1350257
v 0.5325001 0.04723082 -0.1350257
v 0.5325001 0.04723082 0.1350256
v 0.4675001 0.707282 0.1350257
v 0.4675002 0.707282 -0.1350257
v 0.4375002 0.707282 0.1350257
v 0.4375001 0.707282 -0.1350257
v 0.4375001 0.7545128 -0.1822565
v 0.4375001 0.04723082 -0.1350257
v 0.4375001 0 -0.1822565
v 0.4375001 0 0.1822565
v 0.4375002 0.04723082 0.1350257
v 0.4375001 0.7545128 0.1822565
v 0.5625002 0.7545128 -0.1822565
v 0.5625001 0.7545128 0.1822565
v 0.5625002 0 -0.1822565
v 0.5625002 0.707282 -0.1350257
v 0.5625002 0.707282 0.1350257
v 0.5625001 0 0.1822565
v 0.5325001 0.707282 0.1350256
v 0.4675001 0.04723082 0.1350257
v 0.4675002 0.04723082 -0.1350257
v 0.5325001 0.707282 -0.1350257
v 0.5325001 0.6320952 -0.05983874
v 0.5325001 0.6320952 0.05983871
v 0.5325001 0.4996741 0.05983871
v 0.5325001 0.4996741 -0.05983874
v 0.4675002 0.4996741 -0.05983874
v 0.4675002 0.4996741 0.05983871
v 0.4675002 0.6320952 -0.05983874
v 0.4675002 0.6320952 0.05983871
vn 1 0 0
vn -1 0 0
vn -0.7071069 0 0.7071069
vn 0.7071069 0 0.7071069
vn -0.7071069 0 -0.7071069
vn 0.7071069 0 -0.7071069
vn -2.842171E-14 0 1
vn 2.842171E-14 0 -1
vt -0.1422564 0.25
vt -0.1422564 2.255973E-16
vt -0.5000001 0.25
vt -0.5000001 0
vt -0.6025001 -0.5000001
vt -0.6025001 -0.1422565
vt -0.5000001 -0.6025001
vt -0.3975001 -0.1422565
vt -0.3975001 -0.5000001
vt -0.1422565 2.255973E-16
vt -0.1422565 0.25
vt -0.6025 -0.5000001
vt -0.6025001 -0.1422564
vt -0.5000001 -0.6025001
vt -0.3975001 -0.1422565
vt -0.3975001 -0.5000001
vt 0.5000001 0
vt 0.5000001 0.25
vt 0.6025001 0
vt 0.6025001 0.25
vt 0.6025 0
vt 0.5000001 0.25
vt 0.5000001 0
vt -0.5000001 -4.511946E-17
vt -0.3975001 0
vt -0.3975001 0.25
vt 0.6025001 -4.511946E-17
vt 0.6025001 0.25
vt -0.6025001 0.1422564
vt -0.6025 0.5000001
vt -0.3975001 0.1422565
vt -0.5000001 0.6025001
vt -0.3975001 0.5000001
vt 0.6025001 2.255973E-16
vt 0.3975001 2.255973E-16
vt 0.3975001 0.25
vt -0.3975001 2.255973E-16
vt -0.6025001 2.255973E-16
vt -0.3975001 0.25
vt -0.6025001 0.25
vt 0.1422565 0.25
vt 0.1422565 2.255973E-16
vt 0.1422565 2.255973E-16
vt 0.1422565 0.25
vt -0.6025001 0.1422565
vt -0.6025001 0.5000001
vt -0.3975001 0.1422565
vt -0.5000001 0.6025001
vt -0.3975001 0.5000001
vt -0.6125002 -2.355956E-17
vt -0.6125002 0.7545128
vt -0.3875 -8.014827E-32
vt -0.3875 0.7545128
vt -0.6125002 -0.1822565
vt -0.6125001 0.1822565
vt -0.3875 -0.1822565
vt -0.3875 0.1822565
vt 0.6125001 -2.355956E-17
vt 0.3875 -8.014827E-32
vt 0.6125001 0.7545128
vt 0.3875 0.7545128
vt 0.2323149 -2.355956E-17
vt 0.1822565 0.7545128
vt 0.2323149 0.8045712
vt -0.2323149 0.8045712
vt -0.1822565 0.7545128
vt -0.1822565 -2.355956E-17
vt -0.2323149 -2.355956E-17
vt 0.1822565 -2.355956E-17
vt -0.6125001 -2.355956E-17
vt -0.6125001 0.8045712
vt -0.5625002 0
vt -0.5625002 0.8045712
vt -0.6125001 -0.2323149
vt -0.6125002 0.2323149
vt -0.5625002 -0.2323149
vt -0.5625001 0.2323149
vt 0.6125002 -2.355956E-17
vt 0.5625001 0
vt 0.6125002 0.8045712
vt 0.5625001 0.8045712
vt 0.1822565 -8.014827E-32
vt 0.1822565 0.7545128
vt 0.232422 -4.007413E-32
vt 0.232422 0.8046783
vt -0.1822565 0.7545128
vt -0.232422 0.8046783
vt -0.1822565 -8.014827E-32
vt -0.232422 -4.007413E-32
vt 0.4375001 -4.007413E-32
vt 0.3875 -4.007413E-32
vt 0.4375001 0.8046783
vt 0.3875 0.8046783
vt -0.4375001 -0.232422
vt -0.4375001 0.232422
vt -0.3875001 -0.232422
vt -0.3875 0.232422
vt -0.3875001 -4.007413E-32
vt -0.4375001 -4.007413E-32
vt -0.3875001 0.8046783
vt -0.4375001 0.8046783
vt 0.5000001 1
vt 0.5625001 -2.707168E-16
vt 0.5625001 1
vt -0.5000001 -6.316725E-16
vt -0.5000001 1
vt -0.4375001 0
vt -0.4375001 1
vt -0.5625001 1
vt -0.5625001 -2.707168E-16
vt -0.5625001 -0.5000001
vt -0.5625 0.5000001
vt -0.5000001 -0.5625001
vt -0.5000001 0.5625001
vt -0.4375001 -0.5000001
vt -0.4375001 0.5000001
vt -0.6125001 0.2323149
vt -0.5625002 0.2323149
vt -0.4375001 0.232422
vt -0.5625001 0.5000001
vt -0.5000001 0.5625001
vt -0.3875001 0.232422
vt -0.4375001 0.5000001
vt -0.5625001 0
vt -0.6125002 -0.2323149
vt -0.5625001 -0.2323149
vt -0.4375001 -0.232422
vt -0.5625 -0.5000001
vt -0.5000001 -0.5625001
vt -0.4375001 -0.5000001
vt -0.3875 -0.232422
vt 0.232422 -4.007413E-32
vt 0.232422 0.8046783
vt 0.2323149 0.8045712
vt 0.2323149 0
vt -0.2323149 0
vt -0.5625002 -0.1350257
vt -0.5625002 0.1350257
vt -0.5325001 -0.1350257
vt -0.5325001 0.1350257
vt -0.4675001 -0.1350257
vt -0.4675001 0.1350257
vt -0.4375001 -0.1350257
vt -0.4375001 0.1350257
vt -0.1350257 0.04723082
vt -0.1822565 0
vt 0.1822565 0
vt 0.1350257 0.04723082
vt 0.1350257 0.707282
vt -0.1350257 0.707282
vt -0.5625002 -0.1822565
vt -0.5625001 0.1822565
vt -0.4375001 -0.1822565
vt -0.4375001 0.1822565
vt 0.1822565 0
vt 0.1350257 0.707282
vt -0.1350257 0.707282
vt -0.1350257 0.04723082
vt 0.1350257 0.04723082
vt -0.1822565 0
vt -0.4375001 0
vt -0.4375001 0.7545128
vt -0.5625002 0.7545128
vt -0.5625001 -0.1822565
vt -0.5625002 0.1822565
vt -0.4375001 -0.1822565
vt -0.4375001 0.1822565
vt 0.5625001 0
vt 0.4375001 0
vt 0.5625001 0.7545128
vt 0.4375001 0.7545128
vt -0.5325001 0.04723082
vt -0.5625002 0.04723082
vt -0.5325001 0.707282
vt -0.5625002 0.707282
vt -0.4375001 0.04723082
vt -0.4675001 0.04723082
vt -0.4375001 0.707282
vt -0.4675001 0.707282
vt -0.4675001 -0.1350257
vt -0.4675001 0.1350257
vt -0.4375001 -0.1350257
vt -0.4375001 0.1350257
vt 0.4675001 0.04723082
vt 0.4375001 0.04723082
vt 0.4675001 0.707282
vt 0.4375001 0.707282
vt -0.5625002 -0.1350257
vt -0.5625002 0.1350257
vt -0.5325001 -0.1350257
vt -0.5325001 0.1350257
vt 0.5625002 0.04723082
vt 0.5325001 0.04723082
vt 0.5625002 0.707282
vt 0.5325001 0.707282
vt 0.1350257 0.04723082
vt 0.05983874 0.6320952
vt 0.1350257 0.707282
vt -0.05983873 0.6320952
vt -0.05983873 0.4996741
vt 0.05983874 0.4996741
vt -0.5325001 -0.05983874
vt -0.5325001 0.05983873
vt -0.4675002 -0.05983873
vt -0.4675002 0.05983874
vt 0.5325001 0.4996741
vt 0.4675002 0.4996741
vt 0.5325001 0.6320952
vt 0.4675002 0.6320952
vt 0.1350257 0.04723082
vt 0.1350257 0.707282
vt -0.4675002 0.4996741
vt -0.5325001 0.4996741
vt -0.4675002 0.6320952
vt -0.5325001 0.6320952
vt -0.5325001 -0.05983873
vt -0.5325001 0.05983874
vt -0.4675002 -0.05983874
vt -0.4675002 0.05983873

usemtl darkStone (Instance) (Instance) (Instance) (Instance) (Instance) (Instance) (Instance)
usemap darkStone (Instance) (Instance) (Instance) (Instance) (Instance) (Instance) (Instance)
f 75/133/23 74/132/23 73/131/23
f 74/132/23 75/133/23 76/134/23
f 79/137/1 78/136/1 77/135/1
f 78/136/1 79/137/1 80/138/1
f 80/138/1 79/137/1 81/139/1
f 83/140/24 81/133/24 82/134/24
f 81/133/24 83/140/24 80/141/24
f 84/144/12 74/143/12 76/142/12
f 74/143/12 84/144/12 85/145/12
f 85/145/12 84/144/12 86/146/12
f 84/149/25 87/148/25 86/147/25
f 87/148/25 84/149/25 88/150/25
f 88/152/26 76/151/26 75/86/26
f 76/151/26 88/152/26 84/153/26
f 82/155/27 79/133/27 89/154/27
f 79/133/27 82/155/27 81/156/27
f 79/158/28 90/147/28 89/157/28
f 90/147/28 79/158/28 77/148/28
f 91/161/1 75/160/1 73/159/1
f 75/160/1 91/161/1 88/162/1
f 88/162/1 91/161/1 87/163/1
f 78/150/29 83/165/29 92/164/29
f 83/165/29 78/150/29 80/166/29
f 91/169/30 74/168/30 85/167/30
f 74/168/30 91/169/30 73/170/30
f 78/171/23 90/147/23 77/148/23
f 90/147/23 78/171/23 92/172/23
f 86/147/24 91/174/24 85/173/24
f 91/174/24 86/147/24 87/148/24
f 83/177/12 90/176/12 92/175/12
f 90/176/12 83/177/12 89/178/12
f 89/178/12 83/177/12 82/179/12
f 95/182/30 94/181/30 93/180/30
f 94/181/30 95/182/30 96/183/30
f 96/186/12 97/185/12 94/184/12
f 97/185/12 96/186/12 98/187/12
f 97/190/29 100/189/29 99/188/29
f 100/189/29 97/190/29 98/191/29
f 102/194/23 97/193/23 101/192/23
f 97/193/23 102/194/23 103/195/23
f 97/193/23 103/195/23 94/196/23
f 94/196/23 103/195/23 93/197/23
f 93/197/23 103/195/23 104/198/23
f 99/199/23 101/192/23 97/193/23
f 105/202/30 102/201/30 101/200/30
f 102/201/30 105/202/30 106/203/30
f 106/206/1 103/205/1 102/204/1
f 103/205/1 106/206/1 107/207/1
f 103/210/29 108/209/29 104/208/29
f 108/209/29 103/210/29 107/211/29
f 109/214/24 96/213/24 95/212/24
f 110/215/24 96/213/24 109/214/24
f 110/215/24 98/216/24 96/213/24
f 111/217/24 98/216/24 110/215/24
f 111/217/24 100/218/24 98/216/24
f 100/218/24 111/217/24 112/219/24
f 114/222/29 109/221/29 113/220/29
f 109/221/29 114/222/29 110/223/29
f 111/226/1 114/225/1 115/224/1
f 114/225/1 111/226/1 110/227/1
f 111/230/30 116/229/30 112/228/30
f 116/229/30 111/230/30 115/231/30

usemtl lightStone (Instance) (Instance) (Instance) (Instance) (Instance) (Instance) (Instance)
usemap lightStone (Instance) (Instance) (Instance) (Instance) (Instance) (Instance) (Instance)
f 119/233/25 118/232/25 117/147/25
f 118/232/25 119/233/25 120/234/25
f 123/237/27 122/236/27 121/235/27
f 122/236/27 123/237/27 124/238/27
f 120/239/26 126/134/26 125/236/26
f 126/134/26 120/239/26 119/240/26
f 122/243/1 125/242/1 127/241/1
f 125/242/1 122/243/1 120/244/1
f 120/244/1 122/243/1 124/245/1
f 120/244/1 124/245/1 118/246/1
f 100/187/12 101/247/12 99/185/12
f 101/247/12 100/187/12 105/248/12
f 105/248/12 100/187/12 116/249/12
f 105/248/12 116/249/12 128/250/12
f 128/250/12 116/249/12 121/251/12
f 116/249/12 100/187/12 112/252/12
f 123/253/12 121/251/12 116/249/12
f 127/239/28 121/235/28 122/236/28
f 121/235/28 127/239/28 128/254/28
f 104/255/12 95/186/12 93/184/12
f 95/186/12 104/255/12 108/256/12
f 95/186/12 108/256/12 113/257/12
f 113/257/12 108/256/12 126/258/12
f 113/257/12 126/258/12 119/259/12
f 113/257/12 119/259/12 117/260/12
f 95/186/12 113/257/12 109/261/12
f 117/147/24 114/263/24 113/262/24
f 118/232/24 114/263/24 117/147/24
f 118/232/24 115/217/24 114/263/24
f 124/236/24 115/217/24 118/232/24
f 124/236/24 116/219/24 115/217/24
f 116/219/24 124/236/24 123/134/24
f 105/265/23 128/147/23 106/264/23
f 127/232/23 106/264/23 128/147/23
f 106/264/23 127/232/23 125/236/23
f 106/264/23 125/236/23 107/195/23
f 107/195/23 125/236/23 108/266/23
f 108/266/23 125/236/23 126/134/23

usemtl stone (Instance) (Instance) (Instance)
usemap stone (Instance) (Instance) (Instance)
f 131/269/1 130/268/1 129/267/1
f 130/268/1 131/269/1 132/270/1
f 135/273/12 134/272/12 133/271/12
f 134/272/12 135/273/12 136/274/12
f 139/276/24 138/275/24 137/216/24
f 138/275/24 139/276/24 140/277/24
f 138/275/24 140/277/24 141/278/24
f 141/278/24 140/277/24 135/279/24
f 136/280/24 137/216/24 138/275/24
f 137/216/24 136/280/24 142/213/24
f 142/213/24 136/280/24 135/279/24
f 142/213/24 135/279/24 140/277/24
f 137/283/1 144/282/1 143/281/1
f 144/282/1 137/283/1 142/284/1
f 143/193/23 146/286/23 145/285/23
f 146/286/23 143/193/23 144/196/23
f 146/286/23 144/196/23 147/287/23
f 147/287/23 144/196/23 130/288/23
f 129/289/23 145/285/23 146/286/23
f 145/285/23 129/289/23 148/290/23
f 148/290/23 129/289/23 130/288/23
f 148/290/23 130/288/23 144/196/23
f 137/292/30 145/202/30 139/291/30
f 145/202/30 137/292/30 143/293/30
f 140/296/12 145/295/12 148/294/12
f 145/295/12 140/296/12 139/297/12
f 144/300/29 140/299/29 148/298/29
f 140/299/29 144/300/29 142/301/29
f 149/304/30 130/303/30 132/302/30
f 130/303/30 149/304/30 147/305/30
f 135/308/30 150/307/30 141/306/30
f 150/307/30 135/308/30 133/309/30
f 138/312/1 150/311/1 151/310/1
f 150/311/1 138/312/1 141/313/1
f 134/316/29 138/315/29 151/314/29
f 138/315/29 134/316/29 136/317/29
f 149/320/12 146/319/12 147/318/12
f 146/319/12 149/320/12 152/321/12
f 146/324/29 131/323/29 129/322/29
f 131/323/29 146/324/29 152/325/29

usemtl wood (Instance) (Instance) (Instance) (Instance) (Instance) (Instance) (Instance)
usemap wood (Instance) (Instance) (Instance) (Instance) (Instance) (Instance) (Instance)
f 152/328/23 153/327/23 131/326/23
f 153/327/23 152/328/23 149/287/23
f 153/327/23 149/287/23 154/329/23
f 154/329/23 149/287/23 155/330/23
f 156/331/23 131/326/23 153/327/23
f 131/326/23 156/331/23 132/288/23
f 132/288/23 156/331/23 155/330/23
f 132/288/23 155/330/23 149/287/23
f 157/334/1 155/333/1 156/332/1
f 155/333/1 157/334/1 158/335/1
f 153/338/29 157/337/29 156/336/29
f 157/337/29 153/338/29 159/339/29
f 151/275/24 157/330/24 134/280/24
f 157/330/24 151/275/24 150/340/24
f 157/330/24 150/340/24 158/331/24
f 158/331/24 150/340/24 160/327/24
f 159/329/24 134/280/24 157/330/24
f 134/280/24 159/329/24 133/341/24
f 133/341/24 159/329/24 160/327/24
f 133/341/24 160/327/24 150/340/24
f 160/344/30 155/343/30 158/342/30
f 155/343/30 160/344/30 154/345/30
f 160/348/12 153/347/12 154/346/12
f 153/347/12 160/348/12 159/349/12
