# Made using Asset Forge (www.assetforge.io) version 1.2.1 

mtllib hallway_short_03.mtl 

g floor_05_99

v 0.5 0 -0.5625
v 0.5625 0 0.5
v 0.5625 0 -0.5
v 0.5 0 0.5625
v -0.5 0 -0.5625
v -0.5 0 0.5625
v -0.5625 0 -0.5
v -0.5625 0 0.5
v 0.5 0.065 0.5625
v 0.5625 0.065 -0.5
v 0.5625 0.065 0.5
v 0.5 0.065 -0.5625
v -0.5 0.065 0.5625
v -0.5 0.065 -0.5625
v -0.5625 0.065 0.5
v -0.5625 0.065 -0.5
v -1.5625 0 0.5
v -1.6625 0 -0.25
v -1.6625 0 0.25
v -1.5625 0 -0.5
v -1.5 0 0.5625
v -1.5 0 -0.5625
v -0.4375 0 0.5
v -0.4375 0 -0.5
v -1.5625 0.065 -0.5
v -1.6625 0.065 0.25
v -1.6625 0.065 -0.25
v -1.5625 0.065 0.5
v -1.5 0.065 -0.5625
v -1.5 0.065 0.5625
v -0.4375 0.065 -0.5
v -0.4375 0.065 0.5
vn 0 -1 0
vn 0 1 0
vn 0 0 -1
vn 0.7071068 0 -0.7071068
vn 1 0 0
vn 0.7071068 0 0.7071068
vn -0.7071068 0 0.7071068
vn -1 0 0
vn -0.7071068 0 -0.7071068
vn 0 0 1
vn -0.9284768 0 0.3713907
vn -0.9284768 0 -0.3713907
vt -0.5 0.5625
vt -0.5625 -0.5
vt -0.5625 0.5
vt -0.5 -0.5625
vt 0.5 0.5625
vt 0.5 -0.5625
vt 0.5625 0.5
vt 0.5625 -0.5
vt -0.5 0.065
vt 0.5 0
vt -0.5 0
vt 0.5 0.065
vt -0.5625 0
vt -0.5625 0.065
vt 0.5625 0
vt 0.5625 0.065
vt 1.5625 -0.5
vt 1.6625 0.25
vt 1.6625 -0.25
vt 1.5625 0.5
vt 1.5 -0.5625
vt 1.5 0.5625
vt 0.4375 -0.5
vt 0.4375 0.5
vt -1.5 0.065
vt -1.5 0
vt -1.5625 0
vt -1.5625 0.065
vt 0.25 0
vt 0.25 0.065
vt 1.5 0.065
vt 1.5625 0
vt 1.5 0
vt 1.5625 0.065
vt 0.4375 0
vt 0.4375 0.065
vt -0.4375 0
vt -0.4375 0.065
vt -0.25 0
vt -0.25 0.065

usemtl stone (Instance) (Instance) (Instance)
usemap stone (Instance) (Instance) (Instance)
f 3/3/1 2/2/1 1/1/1
f 4/4/1 1/1/1 2/2/1
f 5/5/1 1/1/1 4/4/1
f 6/6/1 5/5/1 4/4/1
f 7/7/1 5/5/1 6/6/1
f 8/8/1 7/7/1 6/6/1
f 11/3/2 10/2/2 9/1/2
f 12/4/2 9/1/2 10/2/2
f 13/5/2 9/1/2 12/4/2
f 14/6/2 13/5/2 12/4/2
f 15/7/2 13/5/2 14/6/2
f 16/8/2 15/7/2 14/6/2
f 1/11/3 5/10/3 12/9/3
f 14/12/3 12/9/3 5/10/3
f 10/14/4 3/13/4 12/9/4
f 1/11/4 12/9/4 3/13/4
f 11/9/5 2/11/5 10/12/5
f 3/10/5 10/12/5 2/11/5
f 4/10/6 2/15/6 9/12/6
f 11/16/6 9/12/6 2/15/6
f 6/11/7 13/9/7 8/13/7
f 15/14/7 8/13/7 13/9/7
f 8/10/8 15/12/8 7/11/8
f 16/9/8 7/11/8 15/12/8
f 5/10/9 7/15/9 14/12/9
f 16/16/9 14/12/9 7/15/9
f 6/11/10 4/10/10 13/9/10
f 9/12/10 13/9/10 4/10/10
f 19/19/1 18/18/1 17/17/1
f 20/20/1 17/17/1 18/18/1
f 21/21/1 17/17/1 20/20/1
f 22/22/1 21/21/1 20/20/1
f 6/6/1 21/21/1 22/22/1
f 5/5/1 6/6/1 22/22/1
f 23/23/1 6/6/1 5/5/1
f 24/24/1 23/23/1 5/5/1
f 27/19/2 26/18/2 25/17/2
f 28/20/2 25/17/2 26/18/2
f 29/21/2 25/17/2 28/20/2
f 30/22/2 29/21/2 28/20/2
f 14/6/2 29/21/2 30/22/2
f 13/5/2 14/6/2 30/22/2
f 31/23/2 14/6/2 13/5/2
f 32/24/2 31/23/2 13/5/2
f 21/26/10 6/11/10 30/25/10
f 13/9/10 30/25/10 6/11/10
f 28/28/7 17/27/7 30/25/7
f 21/26/7 30/25/7 17/27/7
f 26/30/11 19/29/11 28/12/11
f 17/10/11 28/12/11 19/29/11
f 22/33/9 20/32/9 29/31/9
f 25/34/9 29/31/9 20/32/9
f 5/10/4 14/12/4 24/35/4
f 31/36/4 24/35/4 14/12/4
f 24/10/5 31/12/5 23/11/5
f 32/9/5 23/11/5 31/12/5
f 6/11/6 23/37/6 13/9/6
f 32/38/6 13/9/6 23/37/6
f 5/10/3 22/33/3 14/12/3
f 29/31/3 14/12/3 22/33/3
f 27/40/8 18/39/8 26/30/8
f 19/29/8 26/30/8 18/39/8
f 25/9/12 20/11/12 27/40/12
f 18/39/12 27/40/12 20/11/12
g wall_02_100

v 0.4375001 0 0.5
v 0.4375001 1 0.5
v 0.5000001 0 0.5624999
v 0.5000001 1 0.5624999
v 0.5 0 -0.5625001
v 0.5 1 -0.5625001
v 0.4375 0 -0.5000001
v 0.4375 1 -0.5000001
v 0.5625001 1 0.4999999
v 0.5625001 0 0.4999999
v 0.5625 1 -0.5000001
v 0.5625 0 -0.5000001
v 0.6025 0.25 -0.5000001
v 0.6025 0 -0.5000001
v 0.6025001 0.25 0.5
v 0.6025001 0 0.5
v 0.5 0.25 -0.6025001
v 0.5000001 0.25 0.6025
v 0.3975 0.25 -0.5000001
v 0.3975001 0.25 0.5
v 0.3975 0 -0.5000001
v 0.3975001 0 0.5
v 0.5000001 0 0.6025
v 0.5 0 -0.6025001
v 0.4375941 0 -0.1250001
v 0.338661 0 -0.125
v 0.4375941 0 0.1249999
v 0.338661 0 0.125
v 0.3100001 0 0.09633899
v 0.31 0 -0.09633905
v 0.4375951 1 -0.1250001
v 0.4375951 1 0.1249999
v 0.338661 1 -0.125
v 0.338661 1 0.125
v 0.31 1 -0.09633905
v 0.3100001 1 0.09633899
vn -0.7071 0 0.7071001
vn -0.7071001 0 -0.7071
vn 0.7071001 0 0.7071
vn 0.7071 0 -0.7071001
vn 1 0 -1.192093E-07
vn -1 0 1.192093E-07
vn -1.192093E-07 0 -1
vn 1.192093E-07 0 1
vt 0.4375001 0
vt 0.4375001 1
vt 0.5000001 0
vt 0.5000001 1
vt -0.5 1
vt -0.4375 1
vt 0.5625001 1
vt 0.5625001 0
vt -0.5625 -0.5000001
vt -0.5625001 0.5
vt -0.5 -0.5625001
vt -0.5000001 0.5625
vt -0.4375 -0.5000001
vt -0.4375001 0.5
vt -0.5625001 -0.5
vt -0.5625 0.5000001
vt -0.5000001 -0.5625
vt -0.5 0.5625001
vt -0.4375001 -0.5
vt -0.4375 0.5000001
vt -0.5625 1
vt -0.5000001 0
vt -0.5000001 1
vt 0.5 1
vt 0.5000001 0.25
vt -0.5 0.25
vt -0.6025 -0.5000001
vt -0.6025001 0.5
vt -0.5 -0.6025001
vt -0.5000001 0.6025
vt -0.3975 -0.5000001
vt -0.3975001 0.5
vt -0.5000001 0.25
vt 0.5 0.25
vt -0.6025001 -0.5
vt -0.6025 0.5000001
vt -0.5000001 -0.6025
vt -0.5 0.6025001
vt -0.3975 0.5000001
vt -0.3975001 -0.5
vt 0.6025 0
vt 0.6025 0.25
vt 0.6025001 0.25
vt 0.6025001 0
vt -0.6025001 0
vt -0.6025001 0.25
vt -0.6025 0
vt -0.6025 0.25
vt -0.437594 0.1250001
vt -0.338661 0.1250001
vt -0.4375941 -0.125
vt -0.338661 -0.125
vt -0.3100001 -0.09633898
vt -0.31 0.09633905
vt -0.437595 -0.1250001
vt -0.4375951 0.125
vt -0.338661 -0.1250001
vt -0.338661 0.125
vt -0.31 -0.09633905
vt -0.3100001 0.09633898
vt 0.1250001 1
vt 0.1250001 0
vt -0.125 1
vt -0.125 0
vt -0.338661 0
vt -0.437594 0
vt -0.338661 1
vt -0.437595 1
vt -0.09633905 0
vt -0.1250001 0
vt -0.09633905 1
vt -0.1250001 1
vt 0.09633898 0
vt 0.09633898 1
vt 0.125 0
vt 0.125 1
vt 0.4375941 0
vt 0.338661 0
vt 0.4375951 1
vt 0.338661 1

usemtl lightStone (Instance) (Instance) (Instance) (Instance) (Instance) (Instance) (Instance)
usemap lightStone (Instance) (Instance) (Instance) (Instance) (Instance) (Instance) (Instance)
f 35/43/13 34/42/13 33/41/13
f 34/42/13 35/43/13 36/44/13
f 39/37/14 38/45/14 37/11/14
f 38/45/14 39/37/14 40/46/14
f 36/44/15 42/48/15 41/47/15
f 42/48/15 36/44/15 35/43/15
f 38/51/2 41/50/2 43/49/2
f 41/50/2 38/51/2 36/52/2
f 36/52/2 38/51/2 40/53/2
f 36/52/2 40/53/2 34/54/2
f 35/57/1 44/56/1 42/55/1
f 44/56/1 35/57/1 37/58/1
f 37/58/1 35/57/1 33/59/1
f 37/58/1 33/59/1 39/60/1
f 43/61/16 37/11/16 38/45/16
f 37/11/16 43/61/16 44/13/16
f 41/45/17 44/43/17 43/44/17
f 44/43/17 41/45/17 42/11/17
f 33/10/18 40/63/18 39/62/18
f 40/63/18 33/10/18 34/64/18

usemtl darkStone (Instance) (Instance) (Instance) (Instance) (Instance) (Instance) (Instance)
usemap darkStone (Instance) (Instance) (Instance) (Instance) (Instance) (Instance) (Instance)
f 47/66/17 46/43/17 45/65/17
f 46/43/17 47/66/17 48/11/17
f 49/69/2 47/68/2 45/67/2
f 47/68/2 49/69/2 50/70/2
f 50/70/2 49/69/2 51/71/2
f 50/70/2 51/71/2 52/72/2
f 54/10/18 51/73/18 53/62/18
f 51/73/18 54/10/18 52/74/18
f 55/77/1 46/76/1 48/75/1
f 46/76/1 55/77/1 56/78/1
f 56/78/1 55/77/1 53/79/1
f 53/79/1 55/77/1 54/80/1
f 55/81/13 52/74/13 54/10/13
f 52/74/13 55/81/13 50/82/13
f 50/65/15 48/84/15 47/83/15
f 48/84/15 50/65/15 55/43/15
f 53/62/14 49/86/14 56/85/14
f 49/86/14 53/62/14 51/73/14
f 49/66/16 46/87/16 56/11/16
f 46/87/16 49/66/16 45/88/16
f 59/91/1 58/90/1 57/89/1
f 58/90/1 59/91/1 60/92/1
f 58/90/1 60/92/1 61/93/1
f 58/90/1 61/93/1 62/94/1
f 65/97/2 64/96/2 63/95/2
f 64/96/2 65/97/2 66/98/2
f 66/98/2 65/97/2 67/99/2
f 66/98/2 67/99/2 68/100/2
f 64/103/17 57/102/17 63/101/17
f 57/102/17 64/103/17 59/104/17
f 65/107/19 57/106/19 58/105/19
f 57/106/19 65/107/19 63/108/19
f 67/111/14 58/110/14 62/109/14
f 58/110/14 67/111/14 65/112/14
f 61/113/18 67/111/18 62/109/18
f 67/111/18 61/113/18 68/114/18
f 66/116/13 61/113/13 60/115/13
f 61/113/13 66/116/13 68/114/13
f 64/119/20 60/118/20 59/117/20
f 60/118/20 64/119/20 66/120/20
g wall_03_101

v -1.6625 1 0.25
v -1.6625 1 -0.2500002
v -1.5625 1 0.5000001
v -1.5625 1 -0.5000002
v -1.5375 1 0.2499999
v -1.5 1 0.5625001
v -1.4375 1 0.5
v -1.5375 1 -0.2500002
v -1.5 1 -0.5625002
v -1.4375 1 -0.5000002
v -1.6625 5.263937E-17 0.25
v -1.6625 4.511946E-17 -0.2500002
v -1.5375 4.511946E-17 0.2499999
v -1.5375 5.263937E-17 -0.2500002
v -1.5 -6.316725E-16 0.5625001
v -1.4375 0 0.5
v -1.5625 0 0.5000001
v -1.4375 0 -0.5000002
v -1.5 -2.707168E-16 -0.5625002
v -1.5625 0 -0.5000002
v -1.7025 0.25 -0.2500002
v -1.7025 1.500435E-17 -0.2500002
v -1.6025 0.25 -0.5000002
v -1.6025 0 -0.5000002
v -1.7025 0.25 0.2499999
v -1.6025 0.25 0.5000001
v -1.5 0.25 0.6025
v -1.5 0.25 -0.6025002
v -1.4975 0.25 0.25
v -1.3975 0.25 0.5
v -1.4975 0.25 -0.2500002
v -1.3975 0.25 -0.5000002
v -1.4975 1.69198E-17 -0.2500002
v -1.3975 0 -0.5000002
v -1.5 0 -0.6025002
v -1.4975 2.349972E-17 0.25
v -1.5 -4.511946E-17 0.6025
v -1.6025 0 0.5000001
v -1.7025 2.115862E-17 0.2499999
v -1.3975 0 0.5
vn -1 0 -2.384186E-07
vn 1 0 2.384186E-07
vn 0.7071068 0 0.707107
vn -0.707107 0 0.7071068
vn 0.928477 0 -0.3713906
vn 0.707107 0 -0.7071068
vn -0.928477 0 0.3713906
vn 0.9284769 0 0.3713909
vn -0.7071068 0 -0.707107
vn -0.9284769 0 -0.3713909
vt 1.6625 0.25
vt 1.6625 -0.2500002
vt 1.5625 0.5
vt 1.5625 -0.5000002
vt 1.5375 0.25
vt 1.5 0.5625
vt 1.4375 0.5
vt 1.5375 -0.2500002
vt 1.5 -0.5625002
vt 1.4375 -0.5000002
vt 0.25 1
vt 0.25 5.263937E-17
vt -0.2500002 1
vt -0.2500002 4.511946E-17
vt -0.25 4.511946E-17
vt -0.25 1
vt 0.2500002 5.263937E-17
vt 0.2500002 1
vt -1.5 -6.316725E-16
vt -1.5 1
vt -1.4375 0
vt -1.4375 1
vt -1.5625 1
vt -1.5625 0
vt 0.5000002 0
vt 0.5000002 1
vt 0.5625002 -2.707168E-16
vt 0.5625002 1
vt 1.5625 1
vt 1.5625 0
vt 1.5 1
vt 1.5 -2.707168E-16
vt -0.5000002 1
vt -0.5000002 0
vt 1.6625 0.2500002
vt 1.6625 -0.25
vt 1.5625 0.5000002
vt 1.5625 -0.5
vt 1.5375 0.2500002
vt 1.5 0.5625002
vt 1.4375 0.5000002
vt 1.5375 -0.25
vt 1.5 -0.5625
vt 1.4375 -0.5
vt -0.2500002 0.25
vt -0.2500002 1.500435E-17
vt -0.5000002 0.25
vt 1.7025 0.2499999
vt 1.7025 -0.2500002
vt 1.6025 0.5
vt 1.6025 -0.5000002
vt 1.5 0.6025
vt 1.5 -0.6025002
vt 1.4975 0.25
vt 1.3975 0.5
vt 1.4975 -0.2500002
vt 1.3975 -0.5000002
vt 0.2500002 1.69198E-17
vt 0.2500002 0.25
vt 0.5000002 0.25
vt 1.5 0.6025002
vt 1.4975 0.2500002
vt 1.3975 0.5000002
vt 1.4975 -0.25
vt 1.5 -0.6025
vt 1.6025 -0.5
vt 1.6025 0.5000002
vt 1.7025 -0.2499999
vt 1.7025 0.2500002
vt 1.3975 -0.5
vt 0.6025002 0
vt 0.6025002 0.25
vt 1.6025 0.25
vt 1.6025 0
vt 1.5 0.25
vt 1.5 0
vt -1.5 -4.511946E-17
vt -1.5 0.25
vt -1.3975 0
vt -1.3975 0.25
vt 0.6025 -4.511946E-17
vt 0.2499999 0.25
vt 0.2499999 2.115862E-17
vt -0.25 2.349972E-17
vt -0.25 0.25

usemtl lightStone (Instance) (Instance) (Instance) (Instance) (Instance) (Instance) (Instance)
usemap lightStone (Instance) (Instance) (Instance) (Instance) (Instance) (Instance) (Instance)
f 71/123/2 70/122/2 69/121/2
f 70/122/2 71/123/2 72/124/2
f 72/124/2 71/123/2 73/125/2
f 73/125/2 71/123/2 74/126/2
f 73/125/2 74/126/2 75/127/2
f 76/128/2 72/124/2 73/125/2
f 72/124/2 76/128/2 77/129/2
f 77/129/2 76/128/2 78/130/2
f 70/133/21 79/132/21 69/131/21
f 79/132/21 70/133/21 80/134/21
f 82/137/22 73/136/22 81/135/22
f 73/136/22 82/137/22 76/138/22
f 84/141/23 74/140/23 83/139/23
f 74/140/23 84/141/23 75/142/23
f 71/143/24 83/139/24 74/140/24
f 83/139/24 71/143/24 85/144/24
f 81/135/25 75/45/25 84/11/25
f 75/45/25 81/135/25 73/136/25
f 87/147/26 78/146/26 86/145/26
f 78/146/26 87/147/26 77/148/26
f 69/131/27 85/10/27 71/64/27
f 85/10/27 69/131/27 79/132/27
f 86/145/28 76/138/28 82/137/28
f 76/138/28 86/145/28 78/146/28
f 77/151/29 88/150/29 72/149/29
f 88/150/29 77/151/29 87/152/29
f 72/153/30 80/134/30 70/133/30
f 80/134/30 72/153/30 88/154/30
f 88/157/1 79/156/1 80/155/1
f 79/156/1 88/157/1 85/158/1
f 85/158/1 88/157/1 82/159/1
f 82/159/1 88/157/1 87/160/1
f 82/159/1 87/160/1 86/161/1
f 81/162/1 85/158/1 82/159/1
f 85/158/1 81/162/1 83/163/1
f 83/163/1 81/162/1 84/164/1

usemtl darkStone (Instance) (Instance) (Instance) (Instance) (Instance) (Instance) (Instance)
usemap darkStone (Instance) (Instance) (Instance) (Instance) (Instance) (Instance) (Instance)
f 91/167/30 90/166/30 89/165/30
f 90/166/30 91/167/30 92/154/30
f 94/170/2 89/169/2 93/168/2
f 89/169/2 94/170/2 91/171/2
f 91/171/2 94/170/2 95/172/2
f 91/171/2 95/172/2 96/173/2
f 96/173/2 95/172/2 97/174/2
f 97/174/2 95/172/2 98/175/2
f 99/176/2 96/173/2 97/174/2
f 96/173/2 99/176/2 100/177/2
f 102/145/28 99/179/28 101/178/28
f 99/179/28 102/145/28 100/180/28
f 102/183/1 101/182/1 103/181/1
f 104/184/1 103/181/1 101/182/1
f 105/185/1 103/181/1 104/184/1
f 106/186/1 103/181/1 105/185/1
f 106/186/1 92/187/1 103/181/1
f 107/188/1 92/187/1 106/186/1
f 92/187/1 107/188/1 90/189/1
f 105/185/1 104/184/1 108/190/1
f 103/191/26 100/180/26 102/145/26
f 100/180/26 103/191/26 96/192/26
f 96/195/29 92/194/29 91/193/29
f 92/194/29 96/195/29 103/196/29
f 108/199/23 95/198/23 105/197/23
f 95/198/23 108/199/23 98/200/23
f 95/82/24 106/10/24 105/201/24
f 106/10/24 95/82/24 94/74/24
f 89/165/21 107/203/21 93/202/21
f 107/203/21 89/165/21 90/166/21
f 93/202/27 106/10/27 94/74/27
f 106/10/27 93/202/27 107/203/27
f 101/178/22 97/205/22 104/204/22
f 97/205/22 101/178/22 99/179/22
f 104/204/25 98/66/25 108/11/25
f 98/66/25 104/204/25 97/205/25
