# Made using Asset Forge (www.assetforge.io) version 1.2.1 

mtllib hallway_end_04.mtl 

g floor_10_87

v -0.5625001 0.065 0.4999999
v -0.03125006 0.065 0.5625001
v -0.5000001 0.065 0.5624999
v 0.5625001 0.065 -0.03124994
v -0.5625 0.065 -0.5000001
v 0.5625001 0.065 -0.4999999
v -0.5 0.065 -0.5625001
v 0.5000001 0.065 -0.5624999
v 0.5625001 0 -0.4999999
v 0.5625001 0 -0.03124994
v -0.5000001 0 0.5624999
v -0.03125006 0 0.5625001
v -0.5625001 0 0.4999999
v -0.5625 0 -0.5000001
v -0.5 0 -0.5625001
v 0.5000001 0 -0.5624999
v -1.5 0.065 -0.5625
v -1.5625 0.065 -0.03125
v -1.5625 0.065 -0.5
v -0.96875 0.065 0.5625
v -0.5 0.065 -0.5625
v -0.5 0.065 0.5625
v -0.4375 0.065 -0.5
v -0.4375 0.065 0.5
v -0.5 0 0.5625
v -0.96875 0 0.5625
v -1.5625 0 -0.5
v -1.5625 0 -0.03125
v -1.5 0 -0.5625
v -0.5 0 -0.5625
v -0.4375 0 -0.5
v -0.4375 0 0.5
vn 0 1 0
vn 1 0 1.192093E-07
vn -1.192093E-07 0 1
vn -0.7071069 0 0.7071068
vn -1 0 -1.192093E-07
vn -0.7071068 0 -0.7071069
vn 1.192093E-07 0 -1
vn 0.7071069 0 -0.7071068
vn 0 -1 0
vn 0.7071068 0 0.7071069
vn 0 0 1
vn -1 0 0
vn -0.7071068 0 -0.7071068
vn 0 0 -1
vn 0.7071068 0 -0.7071068
vn 1 0 0
vn 0.7071068 0 0.7071068
vn -0.7071068 0 0.7071068
vt 0.5625001 0.4999999
vt 0.03125006 0.5625001
vt 0.5000001 0.5624999
vt -0.5625001 -0.03124994
vt 0.5625 -0.5000001
vt -0.5625001 -0.4999999
vt 0.5 -0.5625001
vt -0.5000001 -0.5624999
vt 0.03124994 0.065
vt 0.4999999 0
vt 0.03124994 0
vt 0.4999999 0.065
vt -0.03125006 0.065
vt -0.5000001 0
vt -0.5000001 0.065
vt -0.03125006 0
vt -0.5625001 0.065
vt -0.5625001 0
vt 0.5 0
vt 0.5625 0.065
vt 0.5625 0
vt 0.5 0.065
vt 0.03125006 -0.5625001
vt 0.5625001 -0.4999999
vt 0.5000001 -0.5624999
vt -0.5625001 0.03124994
vt 0.5625 0.5000001
vt -0.5625001 0.4999999
vt -0.5000001 0.5624999
vt 0.5 0.5625001
vt 0.5625001 0.065
vt 0.5625001 0
vt 1.5 -0.5625
vt 1.5625 -0.03125
vt 1.5625 -0.5
vt 0.96875 0.5625
vt 0.5 -0.5625
vt 0.5 0.5625
vt 0.4375 -0.5
vt 0.4375 0.5
vt -0.96875 0.065
vt -0.5 0
vt -0.96875 0
vt -0.5 0.065
vt -0.03125 0.065
vt -0.03125 0
vt 1.5 0.065
vt 1.5625 0
vt 1.5 0
vt 1.5625 0.065
vt 0.4375 0
vt 0.4375 0.065
vt -0.4375 0
vt -0.4375 0.065
vt 1.5625 0.03125
vt 1.5 0.5625
vt 1.5625 0.5
vt 0.96875 -0.5625
vt -1.5625 0
vt -1.5625 0.065

usemtl stone (Instance) (Instance) (Instance)
usemap stone (Instance) (Instance) (Instance)
f 3/3/1 2/2/1 1/1/1
f 4/4/1 1/1/1 2/2/1
f 5/5/1 1/1/1 4/4/1
f 6/6/1 5/5/1 4/4/1
f 7/7/1 5/5/1 6/6/1
f 8/8/1 7/7/1 6/6/1
f 10/11/2 9/10/2 4/9/2
f 6/12/2 4/9/2 9/10/2
f 3/15/3 11/14/3 2/13/3
f 12/16/3 2/13/3 11/14/3
f 13/18/4 11/14/4 1/17/4
f 3/15/4 1/17/4 11/14/4
f 14/14/5 13/10/5 5/15/5
f 1/12/5 5/15/5 13/10/5
f 14/21/6 5/20/6 15/19/6
f 7/22/6 15/19/6 5/20/6
f 15/19/7 7/22/7 16/14/7
f 8/15/7 16/14/7 7/22/7
f 9/18/8 16/14/8 6/17/8
f 8/15/8 6/17/8 16/14/8
f 11/25/9 13/24/9 12/23/9
f 10/26/9 12/23/9 13/24/9
f 14/27/9 10/26/9 13/24/9
f 9/28/9 10/26/9 14/27/9
f 16/29/9 9/28/9 14/27/9
f 15/30/9 16/29/9 14/27/9
f 2/13/10 12/16/10 4/31/10
f 10/32/10 4/31/10 12/16/10
f 19/35/1 18/34/1 17/33/1
f 20/36/1 17/33/1 18/34/1
f 21/37/1 17/33/1 20/36/1
f 22/38/1 21/37/1 20/36/1
f 23/39/1 21/37/1 22/38/1
f 24/40/1 23/39/1 22/38/1
f 26/43/11 25/42/11 20/41/11
f 22/44/11 20/41/11 25/42/11
f 19/44/12 27/42/12 18/45/12
f 28/46/12 18/45/12 27/42/12
f 29/49/13 27/48/13 17/47/13
f 19/50/13 17/47/13 27/48/13
f 30/19/14 29/49/14 21/22/14
f 17/47/14 21/22/14 29/49/14
f 30/19/15 21/22/15 31/51/15
f 23/52/15 31/51/15 21/22/15
f 31/19/16 23/22/16 32/42/16
f 24/44/16 32/42/16 23/22/16
f 25/42/17 32/53/17 22/44/17
f 24/54/17 22/44/17 32/53/17
f 27/57/9 29/56/9 28/55/9
f 26/58/9 28/55/9 29/56/9
f 30/38/9 26/58/9 29/56/9
f 25/37/9 26/58/9 30/38/9
f 32/39/9 25/37/9 30/38/9
f 31/40/9 32/39/9 30/38/9
f 18/60/18 28/59/18 20/41/18
f 26/43/18 20/41/18 28/59/18
g corner_02_88

v 0.3975001 0.25 -0.5000002
v 0.3975002 5.351174E-16 -0.07367647
v 0.3975001 4.511947E-16 -0.5000002
v 0.3975002 0.25 -0.07367647
v -0.5000001 6.767919E-16 0.3975002
v -0.6025001 0.25 0.5000002
v -0.6025001 6.316725E-16 0.5000002
v -0.5000001 0.25 0.3975002
v 0.5000001 0.25 -0.6025002
v 0.5000001 4.511947E-16 -0.6025002
v 0.6025001 0.25 0.008749962
v 0.6025001 4.511947E-16 -0.5000002
v 0.6025001 4.511947E-16 0.008749962
v 0.6025001 0.25 -0.5000002
v 0.008750082 5.456635E-16 0.6025001
v -0.5000001 6.767919E-16 0.6025002
v -0.07367638 6.359467E-16 0.3975002
v 0.008750082 0.25 0.6025001
v -0.5000001 0.25 0.6025002
v -0.07367638 0.25 0.3975002
v 0.5625001 7.219114E-16 -0.5000002
v 0.5000001 1 -0.5625002
v 0.5000001 4.511947E-16 -0.5625002
v 0.5625001 1 -0.5000002
v 0.4375001 1 -0.5000002
v 0.4375001 7.219114E-16 -0.5000002
v -0.5000001 1 0.5625002
v -0.5625001 4.511946E-17 0.5000002
v -0.5625001 1 0.5000002
v -0.5000001 6.767919E-16 0.5625002
v -0.5000001 6.767919E-16 0.4375002
v -0.5000001 1 0.4375002
v -0.03124994 1 0.5625002
v -0.03124994 6.824319E-16 0.5625002
v -0.03124994 1 0.4375001
v 0.5625002 1 -0.03125006
v 0.4375001 1 -0.03125006
v 0.5625002 6.422474E-16 -0.03125006
v 0.4375001 7.106315E-16 -0.03125006
v -0.03124994 6.880718E-16 0.4375001
vn -1 0 1.192093E-07
vn -0.707107 0 -0.7071069
vn 1 0 -1.192093E-07
vn 1.192093E-07 0 1
vn 0.7071069 0 -0.707107
vn -1.192093E-07 0 -1
vn -0.7071069 0 0.707107
vn 0.707107 0 0.7071069
vt -0.5000001 0.25
vt -0.07367637 5.351174E-16
vt -0.5000001 4.511947E-16
vt -0.07367637 0.25
vt 0.3975001 6.767919E-16
vt 0.5000001 0.25
vt 0.5000001 6.316725E-16
vt 0.3975001 0.25
vt -0.5000002 0.25
vt -0.3975002 4.511947E-16
vt -0.5000002 4.511947E-16
vt -0.3975002 0.25
vt -0.008750095 0.25
vt 0.5000001 4.511947E-16
vt -0.008750095 4.511947E-16
vt -0.008749951 -0.6025001
vt 0.6025002 -0.5000001
vt 0.5000002 -0.6025001
vt 0.0736765 -0.3975002
vt -0.6025001 -0.008750095
vt -0.3975002 0.07367637
vt -0.6025002 0.5000001
vt -0.3975002 0.5000001
vt -0.5000002 0.6025001
vt 0.5000002 -0.3975001
vt 0.008749951 0.25
vt -0.5000002 6.767919E-16
vt 0.008749951 5.456635E-16
vt -0.6025002 0.25
vt -0.6025002 4.511947E-16
vt -0.3975002 5.351174E-16
vt 0.0736765 0.25
vt 0.0736765 6.359467E-16
vt -0.3975002 0.25
vt 0.5000002 0.25
vt 0.5000002 6.767919E-16
vt -0.6025002 6.316725E-16
vt 0.6025002 0.5000001
vt -0.008749951 0.6025001
vt 0.5000002 0.6025001
vt 0.0736765 0.3975002
vt -0.6025001 0.008750095
vt 0.5000002 0.3975001
vt -0.3975002 -0.07367637
vt -0.6025002 -0.5000001
vt -0.3975002 -0.5000001
vt -0.5000002 -0.6025001
vt 0.6025001 0.25
vt 0.6025001 4.511947E-16
vt -0.5625002 7.219114E-16
vt -0.5000002 1
vt -0.5625002 1
vt -0.4375002 1
vt -0.4375002 7.219114E-16
vt -0.5625002 4.511946E-17
vt 0.4375001 6.767919E-16
vt 0.5000001 1
vt 0.5000001 4.511946E-17
vt 0.4375001 1
vt -0.03125007 1
vt -0.03125007 6.824319E-16
vt 0.5625002 0.5000001
vt 0.03125007 0.5625002
vt 0.5000002 0.5625001
vt 0.03125006 0.4375001
vt -0.5625002 -0.03124994
vt 0.5000002 0.4375001
vt -0.4375001 -0.03124995
vt -0.4375002 -0.5000001
vt -0.5625002 -0.5000001
vt -0.5000002 -0.5625001
vt 0.5625002 1
vt 0.5625002 6.422474E-16
vt 0.03124994 1
vt 0.5000001 7.219114E-16
vt 0.03124994 6.422474E-16
vt -0.4375001 7.106315E-16
vt 0.03125006 1
vt 0.03125006 6.880718E-16
vt -0.4375001 1
vt -0.5000001 7.219114E-16
vt -0.03124995 1
vt -0.03124995 7.106315E-16
vt -0.5000001 1
vt 0.5000002 1
vt 0.03125007 -0.5625002
vt 0.03125006 -0.4375001
vt 0.5000002 -0.5625001
vt -0.5625002 0.03124994
vt 0.5625002 -0.5000001
vt -0.4375001 0.03124995
vt -0.5625002 0.5000001
vt -0.4375002 0.5000001
vt -0.5000002 0.5625001
vt 0.5000002 -0.4375001

usemtl darkStone (Instance) (Instance) (Instance) (Instance) (Instance) (Instance) (Instance)
usemap darkStone (Instance) (Instance) (Instance) (Instance) (Instance) (Instance) (Instance)
f 35/63/19 34/62/19 33/61/19
f 36/64/19 33/61/19 34/62/19
f 39/67/20 38/66/20 37/65/20
f 40/68/20 37/65/20 38/66/20
f 42/71/20 35/70/20 41/69/20
f 33/72/20 41/69/20 35/70/20
f 45/75/21 44/74/21 43/73/21
f 46/66/21 43/73/21 44/74/21
f 48/78/9 39/77/9 47/76/9
f 49/79/9 47/76/9 39/77/9
f 45/80/9 47/76/9 49/79/9
f 34/81/9 45/80/9 49/79/9
f 44/82/9 45/80/9 34/81/9
f 35/83/9 44/82/9 34/81/9
f 42/84/9 44/82/9 35/83/9
f 49/79/9 39/77/9 37/85/9
f 51/69/22 48/87/22 50/86/22
f 47/88/22 50/86/22 48/87/22
f 44/90/23 42/71/23 46/89/23
f 41/69/23 46/89/23 42/71/23
f 49/93/20 52/92/20 34/91/20
f 36/94/20 34/91/20 52/92/20
f 37/96/24 40/95/24 49/93/24
f 52/92/24 49/93/24 40/95/24
f 39/97/25 48/87/25 38/89/25
f 51/69/25 38/89/25 48/87/25
f 51/100/1 50/99/1 38/98/1
f 52/101/1 38/98/1 50/99/1
f 43/102/1 52/101/1 50/99/1
f 40/103/1 38/98/1 52/101/1
f 36/104/1 52/101/1 43/102/1
f 46/105/1 36/104/1 43/102/1
f 33/106/1 36/104/1 46/105/1
f 41/107/1 33/106/1 46/105/1
f 50/86/26 47/88/26 43/108/26
f 45/109/26 43/108/26 47/88/26

usemtl lightStone (Instance) (Instance) (Instance) (Instance) (Instance) (Instance) (Instance)
usemap lightStone (Instance) (Instance) (Instance) (Instance) (Instance) (Instance) (Instance)
f 55/71/23 54/111/23 53/110/23
f 56/112/23 53/110/23 54/111/23
f 58/114/20 57/113/20 55/71/20
f 54/111/20 55/71/20 57/113/20
f 61/112/25 60/115/25 59/111/25
f 62/87/25 59/111/25 60/115/25
f 60/118/20 61/117/20 63/116/20
f 64/119/20 63/116/20 61/117/20
f 59/111/22 62/87/22 65/120/22
f 66/121/22 65/120/22 62/87/22
f 59/124/1 65/123/1 61/122/1
f 67/125/1 61/122/1 65/123/1
f 68/126/1 67/125/1 65/123/1
f 64/127/1 61/122/1 67/125/1
f 69/128/1 67/125/1 68/126/1
f 57/129/1 69/128/1 68/126/1
f 56/130/1 57/129/1 68/126/1
f 54/131/1 57/129/1 56/130/1
f 65/120/26 66/121/26 68/132/26
f 70/133/26 68/132/26 66/121/26
f 70/136/21 53/135/21 68/134/21
f 56/117/21 68/134/21 53/135/21
f 72/139/20 67/138/20 71/137/20
f 69/140/20 71/137/20 67/138/20
f 71/143/19 69/142/19 58/141/19
f 57/144/19 58/141/19 69/142/19
f 63/96/24 64/145/24 72/139/24
f 67/138/24 72/139/24 64/145/24
f 62/148/9 72/147/9 66/146/9
f 70/149/9 66/146/9 72/147/9
f 60/150/9 72/147/9 62/148/9
f 71/151/9 70/149/9 72/147/9
f 53/152/9 70/149/9 71/151/9
f 58/153/9 53/152/9 71/151/9
f 55/154/9 53/152/9 58/153/9
f 72/147/9 60/150/9 63/155/9
g corner_02_89

v -0.4999999 0.25 0.3975001
v -0.9263236 5.351174E-16 0.3975002
v -0.4999999 4.511947E-16 0.3975001
v -0.9263236 0.25 0.3975002
v -1.3975 6.767919E-16 -0.5000001
v -1.5 0.25 -0.6025001
v -1.5 6.316725E-16 -0.6025001
v -1.3975 0.25 -0.5000001
v -0.3974999 0.25 0.5000001
v -0.3974999 4.511947E-16 0.5000001
v -1.00875 0.25 0.6025001
v -0.4999999 4.511947E-16 0.6025001
v -1.00875 4.511947E-16 0.6025001
v -0.4999999 0.25 0.6025001
v -1.6025 5.456635E-16 0.008750021
v -1.6025 6.767919E-16 -0.5000001
v -1.3975 6.359467E-16 -0.07367644
v -1.6025 0.25 0.008750021
v -1.6025 0.25 -0.5000001
v -1.3975 0.25 -0.07367644
v -0.4999999 7.219114E-16 0.5625001
v -0.4374999 1 0.5000001
v -0.4374999 4.511947E-16 0.5000001
v -0.4999999 1 0.5625001
v -0.4999999 1 0.4375001
v -0.4999999 7.219114E-16 0.4375001
v -1.5625 1 -0.5000001
v -1.5 4.511946E-17 -0.5625001
v -1.5 1 -0.5625001
v -1.5625 6.767919E-16 -0.5000001
v -1.4375 6.767919E-16 -0.5000001
v -1.4375 1 -0.5000001
v -1.5625 1 -0.03125
v -1.5625 6.824319E-16 -0.03125
v -1.4375 1 -0.03125
v -0.96875 1 0.5625002
v -0.96875 1 0.4375001
v -0.96875 6.422474E-16 0.5625002
v -0.96875 7.106315E-16 0.4375001
v -1.4375 6.880718E-16 -0.03125
vn -2.842171E-14 0 -1
vn 0.7071069 0 -0.7071069
vn 2.842171E-14 0 1
vn 0.7071069 0 0.7071069
vn -0.7071069 0 -0.7071069
vn -0.7071069 0 0.7071069
vt 0.4999999 0.25
vt 0.9263236 5.351174E-16
vt 0.4999999 4.511947E-16
vt 0.9263236 0.25
vt 1.3975 6.767919E-16
vt 1.5 0.25
vt 1.5 6.316725E-16
vt 1.3975 0.25
vt -0.3975001 4.511947E-16
vt -0.3975001 0.25
vt -1.00875 0.25
vt -0.4999999 4.511947E-16
vt -1.00875 4.511947E-16
vt -0.4999999 0.25
vt 1.6025 -0.008750021
vt 1.5 0.6025001
vt 1.6025 0.5000001
vt 1.3975 0.07367644
vt 1.00875 -0.6025001
vt 0.9263236 -0.3975002
vt 0.4999999 -0.6025001
vt 0.4999999 -0.3975001
vt 0.3974999 -0.5000001
vt 1.3975 0.5000001
vt 0.008750021 0.25
vt -0.5000001 6.767919E-16
vt 0.008750021 5.456635E-16
vt -0.3974999 4.511947E-16
vt -0.3974999 0.25
vt -0.3975002 5.351174E-16
vt 0.07367644 0.25
vt 0.07367644 6.359467E-16
vt -0.3975002 0.25
vt 0.5000001 6.767919E-16
vt 1.6025 6.767919E-16
vt 1.6025 0.25
vt 1.5 -0.6025001
vt 1.6025 0.008750021
vt 1.6025 -0.5000001
vt 1.3975 -0.07367644
vt 1.00875 0.6025001
vt 1.3975 -0.5000001
vt 0.9263236 0.3975002
vt 0.4999999 0.6025001
vt 0.4999999 0.3975001
vt 0.3974999 0.5000001
vt 0.6025001 0.25
vt 0.6025001 4.511947E-16
vt -0.4999999 7.219114E-16
vt -0.4374999 1
vt -0.4374999 4.511947E-16
vt -0.4999999 1
vt -0.4375001 1
vt -0.4375001 7.219114E-16
vt 1.5625 1
vt 1.5 4.511946E-17
vt 1.5 1
vt 1.5625 6.767919E-16
vt 1.4375 6.767919E-16
vt 1.4375 1
vt -0.03125 1
vt -0.03125 6.824319E-16
vt 1.5 -0.5625001
vt 1.5625 -0.03125
vt 1.5625 -0.5000001
vt 1.4375 -0.03125
vt 0.96875 0.5625002
vt 1.4375 -0.5000001
vt 0.96875 0.4375001
vt 0.4999999 0.4375001
vt 0.4999999 0.5625001
vt 0.4374999 0.5000001
vt -0.96875 1
vt -1.5625 6.824319E-16
vt -1.5625 1
vt -0.96875 6.422474E-16
vt 0.96875 7.106315E-16
vt 1.4375 6.880718E-16
vt 0.96875 1
vt 0.4999999 7.219114E-16
vt 0.4999999 1
vt 0.03125 6.880718E-16
vt 0.03125 1
vt 1.5625 0.03125
vt 1.4375 0.03125
vt 1.5625 0.5000001
vt 0.96875 -0.5625002
vt 1.5 0.5625001
vt 0.96875 -0.4375001
vt 0.4999999 -0.5625001
vt 0.4999999 -0.4375001
vt 0.4374999 -0.5000001
vt 1.4375 0.5000001

usemtl darkStone (Instance) (Instance) (Instance) (Instance) (Instance) (Instance) (Instance)
usemap darkStone (Instance) (Instance) (Instance) (Instance) (Instance) (Instance) (Instance)
f 75/158/27 74/157/27 73/156/27
f 76/159/27 73/156/27 74/157/27
f 79/162/28 78/161/28 77/160/28
f 80/163/28 77/160/28 78/161/28
f 82/63/28 75/164/28 81/61/28
f 73/165/28 81/61/28 75/164/28
f 85/168/29 84/167/29 83/166/29
f 86/169/29 83/166/29 84/167/29
f 88/172/9 79/171/9 87/170/9
f 89/173/9 87/170/9 79/171/9
f 85/174/9 87/170/9 89/173/9
f 74/175/9 85/174/9 89/173/9
f 84/176/9 85/174/9 74/175/9
f 75/177/9 84/176/9 74/175/9
f 82/178/9 84/176/9 75/177/9
f 89/173/9 79/171/9 77/179/9
f 91/61/12 88/181/12 90/180/12
f 87/182/12 90/180/12 88/181/12
f 84/167/30 82/183/30 86/169/30
f 81/184/30 86/169/30 82/183/30
f 89/187/28 92/186/28 74/185/28
f 76/188/28 74/185/28 92/186/28
f 77/189/16 80/66/16 89/187/16
f 92/186/16 89/187/16 80/66/16
f 79/162/31 88/190/31 78/161/31
f 91/191/31 78/161/31 88/190/31
f 91/194/1 90/193/1 78/192/1
f 92/195/1 78/192/1 90/193/1
f 83/196/1 92/195/1 90/193/1
f 80/197/1 78/192/1 92/195/1
f 76/198/1 92/195/1 83/196/1
f 86/199/1 76/198/1 83/196/1
f 73/200/1 76/198/1 86/199/1
f 81/201/1 73/200/1 86/199/1
f 90/180/32 87/182/32 83/202/32
f 85/203/32 83/202/32 87/182/32

usemtl lightStone (Instance) (Instance) (Instance) (Instance) (Instance) (Instance) (Instance)
usemap lightStone (Instance) (Instance) (Instance) (Instance) (Instance) (Instance) (Instance)
f 95/206/30 94/205/30 93/204/30
f 96/207/30 93/204/30 94/205/30
f 98/209/28 97/208/28 95/63/28
f 94/144/28 95/63/28 97/208/28
f 101/212/31 100/211/31 99/210/31
f 102/213/31 99/210/31 100/211/31
f 100/211/28 101/212/28 103/214/28
f 104/215/28 103/214/28 101/212/28
f 99/144/12 102/181/12 105/216/12
f 106/217/12 105/216/12 102/181/12
f 99/220/1 105/219/1 101/218/1
f 107/221/1 101/218/1 105/219/1
f 108/222/1 107/221/1 105/219/1
f 104/223/1 101/218/1 107/221/1
f 109/224/1 107/221/1 108/222/1
f 97/225/1 109/224/1 108/222/1
f 96/226/1 97/225/1 108/222/1
f 94/227/1 97/225/1 96/226/1
f 105/230/32 106/229/32 108/228/32
f 110/231/32 108/228/32 106/229/32
f 110/231/29 93/204/29 108/228/29
f 96/207/29 108/228/29 93/204/29
f 112/233/28 107/215/28 111/232/28
f 109/234/28 111/232/28 107/215/28
f 111/232/27 109/234/27 98/235/27
f 97/236/27 98/235/27 109/234/27
f 103/189/16 104/117/16 112/237/16
f 107/238/16 112/237/16 104/117/16
f 102/241/9 112/240/9 106/239/9
f 110/242/9 106/239/9 112/240/9
f 100/243/9 112/240/9 102/241/9
f 111/244/9 110/242/9 112/240/9
f 93/245/9 110/242/9 111/244/9
f 98/246/9 93/245/9 111/244/9
f 95/247/9 93/245/9 98/246/9
f 112/240/9 100/243/9 103/248/9
