# Made using Asset Forge (www.assetforge.io) version 1.2.1 

mtllib hallway_short_05.mtl 

g wall_03_101

v -1.6625 1 0.25
v -1.6625 1 -0.2500002
v -1.5625 1 0.5000001
v -1.5625 1 -0.5000002
v -1.5375 1 0.2499999
v -1.5 1 0.5625001
v -1.4375 1 0.5
v -1.5375 1 -0.2500002
v -1.5 1 -0.5625002
v -1.4375 1 -0.5000002
v -1.6625 5.263937E-17 0.25
v -1.6625 4.511946E-17 -0.2500002
v -1.5375 4.511946E-17 0.2499999
v -1.5375 5.263937E-17 -0.2500002
v -1.5 -6.316725E-16 0.5625001
v -1.4375 0 0.5
v -1.5625 0 0.5000001
v -1.4375 0 -0.5000002
v -1.5 -2.707168E-16 -0.5625002
v -1.5625 0 -0.5000002
v -1.7025 0.25 -0.2500002
v -1.7025 1.500435E-17 -0.2500002
v -1.6025 0.25 -0.5000002
v -1.6025 0 -0.5000002
v -1.7025 0.25 0.2499999
v -1.6025 0.25 0.5000001
v -1.5 0.25 0.6025
v -1.5 0.25 -0.6025002
v -1.4975 0.25 0.25
v -1.3975 0.25 0.5
v -1.4975 0.25 -0.2500002
v -1.3975 0.25 -0.5000002
v -1.4975 1.69198E-17 -0.2500002
v -1.3975 0 -0.5000002
v -1.5 0 -0.6025002
v -1.4975 2.349972E-17 0.25
v -1.5 -4.511946E-17 0.6025
v -1.6025 0 0.5000001
v -1.7025 2.115862E-17 0.2499999
v -1.3975 0 0.5
vn 0 1 0
vn -1 0 -2.384186E-07
vn 1 0 2.384186E-07
vn 0.7071068 0 0.707107
vn -0.707107 0 0.7071068
vn 0.928477 0 -0.3713906
vn 0.707107 0 -0.7071068
vn -0.928477 0 0.3713906
vn 0.9284769 0 0.3713909
vn -0.7071068 0 -0.707107
vn -0.9284769 0 -0.3713909
vn 0 -1 0
vt 1.6625 0.25
vt 1.6625 -0.2500002
vt 1.5625 0.5
vt 1.5625 -0.5000002
vt 1.5375 0.25
vt 1.5 0.5625
vt 1.4375 0.5
vt 1.5375 -0.2500002
vt 1.5 -0.5625002
vt 1.4375 -0.5000002
vt 0.25 1
vt 0.25 5.263937E-17
vt -0.2500002 1
vt -0.2500002 4.511946E-17
vt -0.25 4.511946E-17
vt -0.25 1
vt 0.2500002 5.263937E-17
vt 0.2500002 1
vt -1.5 -6.316725E-16
vt -1.5 1
vt -1.4375 0
vt -1.4375 1
vt -1.5625 1
vt -1.5625 0
vt -0.5 0
vt -0.5 1
vt 0.5000002 0
vt 0.5000002 1
vt 0.5625002 -2.707168E-16
vt 0.5625002 1
vt 0.5 1
vt 0.5 0
vt 1.5625 1
vt 1.5625 0
vt 1.5 1
vt 1.5 -2.707168E-16
vt -0.5000002 1
vt -0.5000002 0
vt 1.6625 0.2500002
vt 1.6625 -0.25
vt 1.5625 0.5000002
vt 1.5625 -0.5
vt 1.5375 0.2500002
vt 1.5 0.5625002
vt 1.4375 0.5000002
vt 1.5375 -0.25
vt 1.5 -0.5625
vt 1.4375 -0.5
vt -0.2500002 0.25
vt -0.2500002 1.500435E-17
vt -0.5000002 0.25
vt 1.7025 0.2499999
vt 1.7025 -0.2500002
vt 1.6025 0.5
vt 1.6025 -0.5000002
vt 1.5 0.6025
vt 1.5 -0.6025002
vt 1.4975 0.25
vt 1.3975 0.5
vt 1.4975 -0.2500002
vt 1.3975 -0.5000002
vt 0.2500002 1.69198E-17
vt 0.2500002 0.25
vt 0.5000002 0.25
vt 1.5 0.6025002
vt 1.4975 0.2500002
vt 1.3975 0.5000002
vt 1.4975 -0.25
vt 1.5 -0.6025
vt 1.6025 -0.5
vt 1.6025 0.5000002
vt 1.7025 -0.2499999
vt 1.7025 0.2500002
vt 1.3975 -0.5
vt 0.6025002 0
vt 0.6025002 0.25
vt 1.6025 0.25
vt 1.6025 0
vt 1.5 0.25
vt 1.5 0
vt -1.5 -4.511946E-17
vt -1.5 0.25
vt -1.3975 0
vt -1.3975 0.25
vt 0.6025 -4.511946E-17
vt 0.6025 0.25
vt 0.5 0.25
vt 0.2499999 0.25
vt 0.2499999 2.115862E-17
vt -0.25 2.349972E-17
vt -0.25 0.25
vt -0.5 0.25

usemtl lightStone (Instance) (Instance) (Instance) (Instance) (Instance) (Instance) (Instance)
usemap lightStone (Instance) (Instance) (Instance) (Instance) (Instance) (Instance) (Instance)
f 3/3/1 2/2/1 1/1/1
f 2/2/1 3/3/1 4/4/1
f 4/4/1 3/3/1 5/5/1
f 5/5/1 3/3/1 6/6/1
f 5/5/1 6/6/1 7/7/1
f 8/8/1 4/4/1 5/5/1
f 4/4/1 8/8/1 9/9/1
f 9/9/1 8/8/1 10/10/1
f 2/13/2 11/12/2 1/11/2
f 11/12/2 2/13/2 12/14/2
f 14/17/3 5/16/3 13/15/3
f 5/16/3 14/17/3 8/18/3
f 16/21/4 6/20/4 15/19/4
f 6/20/4 16/21/4 7/22/4
f 3/23/5 15/19/5 6/20/5
f 15/19/5 3/23/5 17/24/5
f 13/15/6 7/26/6 16/25/6
f 7/26/6 13/15/6 5/16/6
f 19/29/7 10/28/7 18/27/7
f 10/28/7 19/29/7 9/30/7
f 1/11/8 17/32/8 3/31/8
f 17/32/8 1/11/8 11/12/8
f 18/27/9 8/18/9 14/17/9
f 8/18/9 18/27/9 10/28/9
f 9/35/10 20/34/10 4/33/10
f 20/34/10 9/35/10 19/36/10
f 4/37/11 12/14/11 2/13/11
f 12/14/11 4/37/11 20/38/11
f 20/41/12 11/40/12 12/39/12
f 11/40/12 20/41/12 17/42/12
f 17/42/12 20/41/12 14/43/12
f 14/43/12 20/41/12 19/44/12
f 14/43/12 19/44/12 18/45/12
f 13/46/12 17/42/12 14/43/12
f 17/42/12 13/46/12 15/47/12
f 15/47/12 13/46/12 16/48/12

usemtl darkStone (Instance) (Instance) (Instance) (Instance) (Instance) (Instance) (Instance)
usemap darkStone (Instance) (Instance) (Instance) (Instance) (Instance) (Instance) (Instance)
f 23/51/11 22/50/11 21/49/11
f 22/50/11 23/51/11 24/38/11
f 26/54/1 21/53/1 25/52/1
f 21/53/1 26/54/1 23/55/1
f 23/55/1 26/54/1 27/56/1
f 23/55/1 27/56/1 28/57/1
f 28/57/1 27/56/1 29/58/1
f 29/58/1 27/56/1 30/59/1
f 31/60/1 28/57/1 29/58/1
f 28/57/1 31/60/1 32/61/1
f 34/27/9 31/63/9 33/62/9
f 31/63/9 34/27/9 32/64/9
f 34/67/12 33/66/12 35/65/12
f 36/68/12 35/65/12 33/66/12
f 37/69/12 35/65/12 36/68/12
f 38/70/12 35/65/12 37/69/12
f 38/70/12 24/71/12 35/65/12
f 39/72/12 24/71/12 38/70/12
f 24/71/12 39/72/12 22/73/12
f 37/69/12 36/68/12 40/74/12
f 35/75/7 32/64/7 34/27/7
f 32/64/7 35/75/7 28/76/7
f 28/79/10 24/78/10 23/77/10
f 24/78/10 28/79/10 35/80/10
f 40/83/4 27/82/4 37/81/4
f 27/82/4 40/83/4 30/84/4
f 27/86/5 38/32/5 37/85/5
f 38/32/5 27/86/5 26/87/5
f 21/49/2 39/89/2 25/88/2
f 39/89/2 21/49/2 22/50/2
f 25/88/8 38/32/8 26/87/8
f 38/32/8 25/88/8 39/89/8
f 33/62/3 29/91/3 36/90/3
f 29/91/3 33/62/3 31/63/3
f 36/90/6 30/92/6 40/25/6
f 30/92/6 36/90/6 29/91/6
g floor_06_103

v 0.5625 0 -0.5
v 0.6625 0 0.25
v 0.6625 0 -0.25
v 0.5625 0 0.5
v 0.5 0 -0.5625
v 0.5 0 0.5625
v -0.5 0 -0.5625
v -0.5 0 0.5625
v -0.5625 0 -0.5
v -0.5625 0 0.5
v 0.5625 0.065 0.5
v 0.6625 0.065 -0.25
v 0.6625 0.065 0.25
v 0.5625 0.065 -0.5
v 0.5 0.065 0.5625
v 0.5 0.065 -0.5625
v -0.5 0.065 0.5625
v -0.5 0.065 -0.5625
v -0.5625 0.065 0.5
v -0.5625 0.065 -0.5
v -1.5625 0 0.5
v -1.6625 0 -0.25
v -1.6625 0 0.25
v -1.5625 0 -0.5
v -1.5 0 0.5625
v -1.5 0 -0.5625
v -0.4375 0 0.5
v -0.4375 0 -0.5
v -1.5625 0.065 -0.5
v -1.6625 0.065 0.25
v -1.6625 0.065 -0.25
v -1.5625 0.065 0.5
v -1.5 0.065 -0.5625
v -1.5 0.065 0.5625
v -0.4375 0.065 -0.5
v -0.4375 0.065 0.5
vn 0 0 -1
vn 0.7071068 0 -0.7071068
vn 0.9284768 0 -0.3713907
vn 0.7071068 0 0.7071068
vn -0.7071068 0 0.7071068
vn -1 0 0
vn -0.7071068 0 -0.7071068
vn 0 0 1
vn 1 0 0
vn 0.9284768 0 0.3713907
vn -0.9284768 0 0.3713907
vn -0.9284768 0 -0.3713907
vt -0.5625 0.5
vt -0.6625 -0.25
vt -0.6625 0.25
vt -0.5625 -0.5
vt -0.5 0.5625
vt -0.5 -0.5625
vt 0.5 0.5625
vt 0.5 -0.5625
vt 0.5625 0.5
vt 0.5625 -0.5
vt -0.5 0.065
vt 0.5 0.065
vt -0.5625 0
vt -0.5625 0.065
vt 0.25 0
vt 0.25 0.065
vt 0.5625 0
vt 0.5625 0.065
vt -0.25 0
vt -0.25 0.065
vt 1.5625 -0.5
vt 1.6625 0.25
vt 1.6625 -0.25
vt 1.5625 0.5
vt 1.5 -0.5625
vt 1.5 0.5625
vt 0.4375 -0.5
vt 0.4375 0.5
vt -1.5 0.065
vt -1.5 0
vt -1.5625 0
vt -1.5625 0.065
vt 1.5 0.065
vt 1.5625 0
vt 1.5 0
vt 1.5625 0.065
vt 0.4375 0
vt 0.4375 0.065
vt -0.4375 0
vt -0.4375 0.065

usemtl stone (Instance) (Instance) (Instance)
usemap stone (Instance) (Instance) (Instance)
f 43/95/12 42/94/12 41/93/12
f 44/96/12 41/93/12 42/94/12
f 45/97/12 41/93/12 44/96/12
f 46/98/12 45/97/12 44/96/12
f 47/99/12 45/97/12 46/98/12
f 48/100/12 47/99/12 46/98/12
f 49/101/12 47/99/12 48/100/12
f 50/102/12 49/101/12 48/100/12
f 53/95/1 52/94/1 51/93/1
f 54/96/1 51/93/1 52/94/1
f 55/97/1 51/93/1 54/96/1
f 56/98/1 55/97/1 54/96/1
f 57/99/1 55/97/1 56/98/1
f 58/100/1 57/99/1 56/98/1
f 59/101/1 57/99/1 58/100/1
f 60/102/1 59/101/1 58/100/1
f 45/25/13 47/32/13 56/103/13
f 58/104/13 56/103/13 47/32/13
f 54/106/14 41/105/14 56/103/14
f 45/25/14 56/103/14 41/105/14
f 52/108/15 43/107/15 54/104/15
f 41/32/15 54/104/15 43/107/15
f 46/32/16 44/109/16 55/104/16
f 51/110/16 55/104/16 44/109/16
f 48/25/17 57/103/17 50/105/17
f 59/106/17 50/105/17 57/103/17
f 50/32/18 59/104/18 49/25/18
f 60/103/18 49/25/18 59/104/18
f 47/32/19 49/109/19 58/104/19
f 60/110/19 58/104/19 49/109/19
f 48/25/20 46/32/20 57/103/20
f 55/104/20 57/103/20 46/32/20
f 53/112/21 42/111/21 52/108/21
f 43/107/21 52/108/21 42/111/21
f 51/103/22 44/25/22 53/112/22
f 42/111/22 53/112/22 44/25/22
f 63/115/12 62/114/12 61/113/12
f 64/116/12 61/113/12 62/114/12
f 65/117/12 61/113/12 64/116/12
f 66/118/12 65/117/12 64/116/12
f 48/100/12 65/117/12 66/118/12
f 47/99/12 48/100/12 66/118/12
f 67/119/12 48/100/12 47/99/12
f 68/120/12 67/119/12 47/99/12
f 71/115/1 70/114/1 69/113/1
f 72/116/1 69/113/1 70/114/1
f 73/117/1 69/113/1 72/116/1
f 74/118/1 73/117/1 72/116/1
f 58/100/1 73/117/1 74/118/1
f 57/99/1 58/100/1 74/118/1
f 75/119/1 58/100/1 57/99/1
f 76/120/1 75/119/1 57/99/1
f 65/122/20 48/25/20 74/121/20
f 57/103/20 74/121/20 48/25/20
f 72/124/17 61/123/17 74/121/17
f 65/122/17 74/121/17 61/123/17
f 70/108/23 63/107/23 72/104/23
f 61/32/23 72/104/23 63/107/23
f 66/127/19 64/126/19 73/125/19
f 69/128/19 73/125/19 64/126/19
f 47/32/14 58/104/14 68/129/14
f 75/130/14 68/129/14 58/104/14
f 68/32/21 75/104/21 67/25/21
f 76/103/21 67/25/21 75/104/21
f 48/25/16 67/131/16 57/103/16
f 76/132/16 57/103/16 67/131/16
f 47/32/13 66/127/13 58/104/13
f 73/125/13 58/104/13 66/127/13
f 71/112/18 62/111/18 70/108/18
f 63/107/18 70/108/18 62/111/18
f 69/103/24 64/25/24 71/112/24
f 62/111/24 71/112/24 64/25/24
g wall_03_104

v 0.6625001 1 -0.2500001
v 0.6625001 1 0.2500001
v 0.5625001 1 -0.5000001
v 0.5625 1 0.5000001
v 0.5375 1 -0.2500001
v 0.5000001 1 -0.5625001
v 0.4375001 1 -0.5000001
v 0.5375001 1 0.2500001
v 0.5 1 0.5625001
v 0.4375001 1 0.5000001
v 0.6625001 5.263937E-17 -0.2500001
v 0.6625001 4.511946E-17 0.2500001
v 0.5375 4.511946E-17 -0.2500001
v 0.5375001 5.263937E-17 0.2500001
v 0.5000001 -6.316725E-16 -0.5625001
v 0.4375001 0 -0.5000001
v 0.5625001 0 -0.5000001
v 0.4375001 0 0.5000001
v 0.5 -2.707168E-16 0.5625001
v 0.5625 0 0.5000001
v 0.7025001 0.25 0.2500001
v 0.7025001 1.500435E-17 0.2500001
v 0.6025 0.25 0.5000001
v 0.6025 0 0.5000001
v 0.7025001 0.25 -0.2500001
v 0.6025001 0.25 -0.5000001
v 0.5000001 0.25 -0.6025001
v 0.5 0.25 0.6025001
v 0.4975001 0.25 -0.2500001
v 0.3975001 0.25 -0.5000001
v 0.4975001 0.25 0.2500001
v 0.3975001 0.25 0.5000001
v 0.4975001 1.69198E-17 0.2500001
v 0.3975001 0 0.5000001
v 0.5 0 0.6025001
v 0.4975001 2.349972E-17 -0.2500001
v 0.5000001 -4.511946E-17 -0.6025001
v 0.6025001 0 -0.5000001
v 0.7025001 2.115862E-17 -0.2500001
v 0.3975001 0 -0.5000001
vn 1 0 0
vn -1 0 0
vn -0.7071069 0 -0.7071069
vn 0.7071069 0 -0.7071069
vn -0.928477 0 0.3713908
vn -0.7071069 0 0.7071069
vn 0.928477 0 -0.3713908
vn -0.9284769 0 -0.3713907
vn 0.7071069 0 0.7071069
vn 0.9284769 0 0.3713907
vt -0.6625001 -0.2500001
vt -0.6625001 0.25
vt -0.5625001 -0.5000001
vt -0.5625 0.5000001
vt -0.5375001 -0.2500001
vt -0.5000001 -0.5625001
vt -0.4375001 -0.5000001
vt -0.5375001 0.2500001
vt -0.5000001 0.5625001
vt -0.4375001 0.5000001
vt 0.2500001 1
vt 0.2500001 5.263937E-17
vt -0.25 1
vt -0.25 4.511946E-17
vt -0.2500001 4.511946E-17
vt -0.2500001 1
vt 0.2500001 5.263937E-17
vt 0.2500001 1
vt -0.5000001 -6.316725E-16
vt -0.5000001 1
vt -0.4375001 0
vt -0.4375001 1
vt -0.5625001 1
vt -0.5625001 0
vt -0.5000001 0
vt 0.5000001 0
vt 0.5000001 1
vt 0.5625001 -2.707168E-16
vt 0.5625001 1
vt -0.5625001 -2.707168E-16
vt -0.6625001 -0.25
vt -0.6625001 0.2500001
vt -0.5625 -0.5000001
vt -0.5625001 0.5000001
vt -0.5375001 -0.2500001
vt -0.5000001 -0.5625001
vt -0.4375001 -0.5000001
vt -0.5375001 0.2500001
vt -0.5000001 0.5625001
vt -0.4375001 0.5000001
vt -0.25 0.25
vt -0.25 1.500435E-17
vt -0.5000001 0.25
vt -0.7025002 -0.2500001
vt -0.7025001 0.25
vt -0.6025001 -0.5000001
vt -0.6025 0.5000001
vt -0.5000001 -0.6025001
vt -0.5000001 0.6025001
vt -0.4975001 -0.2500001
vt -0.3975001 -0.5000001
vt -0.4975001 0.2500001
vt -0.3975001 0.5000001
vt 0.2500001 1.69198E-17
vt 0.2500001 0.25
vt 0.5000001 0.25
vt -0.5000001 -0.6025001
vt -0.4975001 -0.2500001
vt -0.3975001 -0.5000001
vt -0.4975001 0.2500001
vt -0.5000001 0.6025001
vt -0.6025001 0.5000001
vt -0.6025 -0.5000001
vt -0.7025002 0.2500001
vt -0.7025001 -0.25
vt -0.3975001 0.5000001
vt 0.6025001 0
vt 0.6025001 0.25
vt 0.6025 0
vt 0.5000001 0.25
vt 0.5000001 0
vt -0.5000001 -4.511946E-17
vt -0.3975001 0
vt -0.3975001 0.25
vt 0.6025001 -4.511946E-17
vt 0.6025001 0.25
vt 0.2500001 0.25
vt 0.2500001 2.115862E-17
vt -0.2500001 2.349972E-17
vt -0.2500001 0.25

usemtl lightStone (Instance) (Instance) (Instance) (Instance) (Instance) (Instance) (Instance)
usemap lightStone (Instance) (Instance) (Instance) (Instance) (Instance) (Instance) (Instance)
f 79/135/1 78/134/1 77/133/1
f 78/134/1 79/135/1 80/136/1
f 80/136/1 79/135/1 81/137/1
f 81/137/1 79/135/1 82/138/1
f 81/137/1 82/138/1 83/139/1
f 84/140/1 80/136/1 81/137/1
f 80/136/1 84/140/1 85/141/1
f 85/141/1 84/140/1 86/142/1
f 78/145/25 87/144/25 77/143/25
f 87/144/25 78/145/25 88/146/25
f 90/149/26 81/148/26 89/147/26
f 81/148/26 90/149/26 84/150/26
f 92/153/27 82/152/27 91/151/27
f 82/152/27 92/153/27 83/154/27
f 79/155/28 91/151/28 82/152/28
f 91/151/28 79/155/28 93/156/28
f 89/147/29 83/152/29 92/157/29
f 83/152/29 89/147/29 81/148/29
f 95/160/30 86/159/30 94/158/30
f 86/159/30 95/160/30 85/161/30
f 77/143/31 93/158/31 79/159/31
f 93/158/31 77/143/31 87/144/31
f 94/158/32 84/150/32 90/149/32
f 84/150/32 94/158/32 86/159/32
f 85/155/33 96/157/33 80/152/33
f 96/157/33 85/155/33 95/162/33
f 80/152/34 88/146/34 78/145/34
f 88/146/34 80/152/34 96/157/34
f 96/165/12 87/164/12 88/163/12
f 87/164/12 96/165/12 93/166/12
f 93/166/12 96/165/12 90/167/12
f 90/167/12 96/165/12 95/168/12
f 90/167/12 95/168/12 94/169/12
f 89/170/12 93/166/12 90/167/12
f 93/166/12 89/170/12 91/171/12
f 91/171/12 89/170/12 92/172/12

usemtl darkStone (Instance) (Instance) (Instance) (Instance) (Instance) (Instance) (Instance)
usemap darkStone (Instance) (Instance) (Instance) (Instance) (Instance) (Instance) (Instance)
f 99/175/34 98/174/34 97/173/34
f 98/174/34 99/175/34 100/157/34
f 102/178/1 97/177/1 101/176/1
f 97/177/1 102/178/1 99/179/1
f 99/179/1 102/178/1 103/180/1
f 99/179/1 103/180/1 104/181/1
f 104/181/1 103/180/1 105/182/1
f 105/182/1 103/180/1 106/183/1
f 107/184/1 104/181/1 105/182/1
f 104/181/1 107/184/1 108/185/1
f 110/158/32 107/187/32 109/186/32
f 107/187/32 110/158/32 108/188/32
f 110/191/12 109/190/12 111/189/12
f 112/192/12 111/189/12 109/190/12
f 113/193/12 111/189/12 112/192/12
f 114/194/12 111/189/12 113/193/12
f 114/194/12 100/195/12 111/189/12
f 115/196/12 100/195/12 114/194/12
f 100/195/12 115/196/12 98/197/12
f 113/193/12 112/192/12 116/198/12
f 111/199/30 108/188/30 110/158/30
f 108/188/30 111/199/30 104/200/30
f 104/202/33 100/201/33 99/86/33
f 100/201/33 104/202/33 111/203/33
f 116/205/27 103/175/27 113/204/27
f 103/175/27 116/205/27 106/206/27
f 103/208/28 114/158/28 113/207/28
f 114/158/28 103/208/28 102/188/28
f 97/173/25 115/210/25 101/209/25
f 115/210/25 97/173/25 98/174/25
f 101/209/31 114/158/31 102/188/31
f 114/158/31 101/209/31 115/210/31
f 109/186/26 105/212/26 112/211/26
f 105/212/26 109/186/26 107/187/26
f 112/211/29 106/175/29 116/157/29
f 106/175/29 112/211/29 105/212/29
