# Made using Asset Forge (www.assetforge.io) version 1.2.1 

mtllib sm_hallway_01.mtl 

g floor_14_164

v 0.6625 0 0.25
v 0.6625 0 -0.25
v 0.5625 0 0.5
v 0.5625 0 -0.5
v 0.6625 0.065 -0.25
v 0.6625 0.065 0.25
v 0.5625 0.065 -0.5
v 0.5625 0.065 0.5
v -0.6625 0 -0.25
v -0.6625 0 0.25
v -0.5625 0 -0.5
v -0.5625 0 0.5
v -0.5 0 -0.5625
v -0.5 0 0.5625
v 0.5 0 -0.5625
v 0.5 0 0.5625
v -0.6625 0.065 0.25
v -0.6625 0.065 -0.25
v -0.5625 0.065 0.5
v -0.5625 0.065 -0.5
v -0.5 0.065 0.5625
v -0.5 0.065 -0.5625
v 0.5 0.065 0.5625
v 0.5 0.065 -0.5625
vn 0 -1 0
vn 0 1 0
vn 0.9285 0 0.3714
vn 1 0 0
vn 0.9285 0 -0.3714
vn 0 0 -1
vn -0.7071 0 -0.7071
vn -0.9285 0 -0.3714
vn -0.7071 0 0.7071
vn 0.7071 0 0.7071
vn 0.7071 0 -0.7071
vn 0 0 1
vn -1 0 0
vn -0.9285 0 0.3714
vt -0.6625 -0.25
vt -0.6625 0.25
vt -0.5625 -0.5
vt -0.5625 0.5
vt -0.25 0.065
vt -0.25 0
vt -0.5 0.065
vt -0.5 0
vt 0.25 0.065
vt 0.25 0
vt 0.5 0.065
vt 0.5 0
vt 0.6625 0.25
vt 0.6625 -0.25
vt 0.5625 0.5
vt 0.5625 -0.5
vt 0.5 0.5625
vt 0.5 -0.5625
vt -0.5 0.5625
vt -0.5 -0.5625
vt 0.5625 0.065
vt 0.5625 0
vt -0.5625 0
vt -0.5625 0.065

usemtl stone (Instance) (Instance)
usemap stone (Instance) (Instance)
f 3/3/1 2/2/1 1/1/1
f 2/2/1 3/3/1 4/4/1
f 7/3/2 6/2/2 5/1/2
f 6/2/2 7/3/2 8/4/2
f 8/7/3 1/6/3 6/5/3
f 1/6/3 8/7/3 3/8/3
f 6/5/4 2/10/4 5/9/4
f 2/10/4 6/5/4 1/6/4
f 5/9/5 4/12/5 7/11/5
f 4/12/5 5/9/5 2/10/5
f 11/15/1 10/14/1 9/13/1
f 10/14/1 11/15/1 12/16/1
f 12/16/1 11/15/1 13/17/1
f 12/16/1 13/17/1 14/18/1
f 14/18/1 13/17/1 15/19/1
f 14/18/1 15/19/1 16/20/1
f 16/20/1 15/19/1 4/4/1
f 16/20/1 4/4/1 3/3/1
f 19/15/2 18/14/2 17/13/2
f 18/14/2 19/15/2 20/16/2
f 20/16/2 19/15/2 21/17/2
f 20/16/2 21/17/2 22/18/2
f 22/18/2 21/17/2 23/19/2
f 22/18/2 23/19/2 24/20/2
f 24/20/2 23/19/2 8/4/2
f 24/20/2 8/4/2 7/3/2
f 22/11/6 15/8/6 13/12/6
f 15/8/6 22/11/6 24/7/6
f 22/11/7 11/22/7 20/21/7
f 11/22/7 22/11/7 13/12/7
f 20/7/8 9/6/8 18/5/8
f 9/6/8 20/7/8 11/8/8
f 21/7/9 12/23/9 14/8/9
f 12/23/9 21/7/9 19/24/9
f 3/22/10 23/11/10 16/12/10
f 23/11/10 3/22/10 8/21/10
f 4/12/4 8/7/4 3/8/4
f 8/7/4 4/12/4 7/11/4
f 24/7/11 4/23/11 15/8/11
f 4/23/11 24/7/11 7/24/11
f 23/11/12 14/8/12 16/12/12
f 14/8/12 23/11/12 21/7/12
f 18/5/13 10/10/13 17/9/13
f 10/10/13 18/5/13 9/6/13
f 17/9/14 12/12/14 19/11/14
f 12/12/14 17/9/14 10/10/14
g wall_03_165

v -0.6625001 1 0.25
v -0.6625 1 -0.2500002
v -0.5625002 1 0.5000001
v -0.5624999 1 -0.5000002
v -0.5375001 1 0.2499999
v -0.5000002 1 0.5625001
v -0.4375002 1 0.5
v -0.5375 1 -0.2500002
v -0.4999999 1 -0.5625002
v -0.4375 1 -0.5000002
v -0.6625001 5.263937E-17 0.25
v -0.6625 4.511946E-17 -0.2500002
v -0.5375001 4.511946E-17 0.2499999
v -0.5375 5.263937E-17 -0.2500002
v -0.5000002 -6.316725E-16 0.5625001
v -0.4375002 0 0.5
v -0.5625002 0 0.5000001
v -0.4375 0 -0.5000002
v -0.4999999 -2.707168E-16 -0.5625002
v -0.5624999 0 -0.5000002
v -0.7025 0.25 -0.2500002
v -0.7025 1.500435E-17 -0.2500002
v -0.6024999 0.25 -0.5000002
v -0.6024999 0 -0.5000002
v -0.7025002 0.25 0.2499999
v -0.6025002 0.25 0.5000001
v -0.5000002 0.25 0.6025
v -0.4999999 0.25 -0.6025002
v -0.4975002 0.25 0.25
v -0.3975002 0.25 0.5
v -0.4975 0.25 -0.2500002
v -0.3975 0.25 -0.5000002
v -0.4975 1.69198E-17 -0.2500002
v -0.3975 0 -0.5000002
v -0.4999999 0 -0.6025002
v -0.4975002 2.349972E-17 0.25
v -0.5000002 -4.511946E-17 0.6025
v -0.6025002 0 0.5000001
v -0.7025002 2.115862E-17 0.2499999
v -0.3975002 0 0.5
vn -1 0 -2.384186E-07
vn 1 0 2.384186E-07
vn 0.7071068 0 0.707107
vn -0.707107 0 0.7071068
vn 0.928477 0 -0.3713906
vn 0.707107 0 -0.7071068
vn -0.928477 0 0.3713906
vn 0.9284769 0 0.3713909
vn -0.7071068 0 -0.707107
vn -0.9284769 0 -0.3713909
vt 0.6625001 0.2500001
vt 0.6625001 -0.25
vt 0.5625001 0.5000001
vt 0.5625 -0.5000001
vt 0.5375001 0.2500001
vt 0.5000001 0.5625001
vt 0.4375001 0.5000001
vt 0.5375001 -0.2500001
vt 0.5000001 -0.5625001
vt 0.4375001 -0.5000001
vt 0.2500001 1
vt 0.2500001 5.263937E-17
vt -0.25 1
vt -0.25 4.511946E-17
vt -0.2500001 4.511946E-17
vt -0.2500001 1
vt 0.2500001 5.263937E-17
vt 0.2500001 1
vt -0.5000001 -6.316725E-16
vt -0.5000001 1
vt -0.4375001 0
vt -0.4375001 1
vt -0.5625001 1
vt -0.5625001 0
vt -0.5000001 0
vt 0.5000001 0
vt 0.5000001 1
vt 0.5625001 -2.707168E-16
vt 0.5625001 1
vt -0.5625001 -2.707168E-16
vt 0.6625001 0.25
vt 0.6625001 -0.2500001
vt 0.5625 0.5000001
vt 0.5625001 -0.5000001
vt 0.5375001 0.2500001
vt 0.5000001 0.5625001
vt 0.4375001 0.5000001
vt 0.5375001 -0.2500001
vt 0.5000001 -0.5625001
vt 0.4375001 -0.5000001
vt -0.25 0.25
vt -0.25 1.500435E-17
vt -0.5000001 0.25
vt 0.7025002 0.2500001
vt 0.7025001 -0.25
vt 0.6025001 0.5000001
vt 0.6025 -0.5000001
vt 0.5000001 0.6025001
vt 0.5000001 -0.6025001
vt 0.4975001 0.2500001
vt 0.3975001 0.5000001
vt 0.4975001 -0.2500001
vt 0.3975001 -0.5000001
vt 0.2500001 1.69198E-17
vt 0.2500001 0.25
vt 0.5000001 0.25
vt 0.5000001 0.6025001
vt 0.4975001 0.2500001
vt 0.3975001 0.5000001
vt 0.4975001 -0.2500001
vt 0.5000001 -0.6025001
vt 0.6025001 -0.5000001
vt 0.6025 0.5000001
vt 0.7025002 -0.2500001
vt 0.7025001 0.25
vt 0.3975001 -0.5000001
vt 0.6025001 0
vt 0.6025001 0.25
vt 0.6025 0.25
vt 0.6025 0
vt 0.5000001 0.25
vt 0.5000001 0
vt -0.5000001 -4.511946E-17
vt -0.3975001 0
vt -0.3975001 0.25
vt 0.6025001 -4.511946E-17
vt 0.6025001 0.25
vt 0.2500001 0.25
vt 0.2500001 2.115862E-17
vt -0.2500001 2.349972E-17
vt -0.2500001 0.25

usemtl lightStone (Instance) (Instance) (Instance) (Instance) (Instance)
usemap lightStone (Instance) (Instance) (Instance) (Instance) (Instance)
f 27/27/2 26/26/2 25/25/2
f 26/26/2 27/27/2 28/28/2
f 28/28/2 27/27/2 29/29/2
f 29/29/2 27/27/2 30/30/2
f 29/29/2 30/30/2 31/31/2
f 32/32/2 28/28/2 29/29/2
f 28/28/2 32/32/2 33/33/2
f 33/33/2 32/32/2 34/34/2
f 26/37/15 35/36/15 25/35/15
f 35/36/15 26/37/15 36/38/15
f 38/41/16 29/40/16 37/39/16
f 29/40/16 38/41/16 32/42/16
f 40/45/17 30/44/17 39/43/17
f 30/44/17 40/45/17 31/46/17
f 27/47/18 39/43/18 30/44/18
f 39/43/18 27/47/18 41/48/18
f 37/39/19 31/44/19 40/49/19
f 31/44/19 37/39/19 29/40/19
f 43/52/20 34/51/20 42/50/20
f 34/51/20 43/52/20 33/53/20
f 25/35/21 41/50/21 27/51/21
f 41/50/21 25/35/21 35/36/21
f 42/50/22 32/42/22 38/41/22
f 32/42/22 42/50/22 34/51/22
f 33/47/23 44/49/23 28/44/23
f 44/49/23 33/47/23 43/54/23
f 28/44/24 36/38/24 26/37/24
f 36/38/24 28/44/24 44/49/24
f 44/57/1 35/56/1 36/55/1
f 35/56/1 44/57/1 41/58/1
f 41/58/1 44/57/1 38/59/1
f 38/59/1 44/57/1 43/60/1
f 38/59/1 43/60/1 42/61/1
f 37/62/1 41/58/1 38/59/1
f 41/58/1 37/62/1 39/63/1
f 39/63/1 37/62/1 40/64/1

usemtl darkStone (Instance) (Instance) (Instance) (Instance) (Instance)
usemap darkStone (Instance) (Instance) (Instance) (Instance) (Instance)
f 47/67/24 46/66/24 45/65/24
f 46/66/24 47/67/24 48/49/24
f 50/70/2 45/69/2 49/68/2
f 45/69/2 50/70/2 47/71/2
f 47/71/2 50/70/2 51/72/2
f 47/71/2 51/72/2 52/73/2
f 52/73/2 51/72/2 53/74/2
f 53/74/2 51/72/2 54/75/2
f 55/76/2 52/73/2 53/74/2
f 52/73/2 55/76/2 56/77/2
f 58/50/22 55/79/22 57/78/22
f 55/79/22 58/50/22 56/80/22
f 58/83/1 57/82/1 59/81/1
f 60/84/1 59/81/1 57/82/1
f 61/85/1 59/81/1 60/84/1
f 62/86/1 59/81/1 61/85/1
f 62/86/1 48/87/1 59/81/1
f 63/88/1 48/87/1 62/86/1
f 48/87/1 63/88/1 46/89/1
f 61/85/1 60/84/1 64/90/1
f 59/91/20 56/80/20 58/50/20
f 56/80/20 59/91/20 52/92/20
f 52/95/23 48/94/23 47/93/23
f 48/94/23 52/95/23 59/96/23
f 64/98/17 51/67/17 61/97/17
f 51/67/17 64/98/17 54/99/17
f 51/101/18 62/50/18 61/100/18
f 62/50/18 51/101/18 50/80/18
f 45/65/15 63/103/15 49/102/15
f 63/103/15 45/65/15 46/66/15
f 49/102/21 62/50/21 50/80/21
f 62/50/21 49/102/21 63/103/21
f 57/78/16 53/105/16 60/104/16
f 53/105/16 57/78/16 55/79/16
f 60/104/19 54/67/19 64/49/19
f 54/67/19 60/104/19 53/105/19
g wall_03_166

v 0.6625001 1 -0.2500001
v 0.6625001 1 0.2500001
v 0.5625001 1 -0.5000001
v 0.5625 1 0.5000001
v 0.5375 1 -0.2500001
v 0.5000001 1 -0.5625001
v 0.4375001 1 -0.5000001
v 0.5375001 1 0.2500001
v 0.5 1 0.5625001
v 0.4375001 1 0.5000001
v 0.6625001 5.263937E-17 -0.2500001
v 0.6625001 4.511946E-17 0.2500001
v 0.5375 4.511946E-17 -0.2500001
v 0.5375001 5.263937E-17 0.2500001
v 0.5000001 -6.316725E-16 -0.5625001
v 0.4375001 0 -0.5000001
v 0.5625001 0 -0.5000001
v 0.4375001 0 0.5000001
v 0.5 -2.707168E-16 0.5625001
v 0.5625 0 0.5000001
v 0.7025001 0.25 0.2500001
v 0.7025001 1.500435E-17 0.2500001
v 0.6025 0.25 0.5000001
v 0.6025 0 0.5000001
v 0.7025001 0.25 -0.2500001
v 0.6025001 0.25 -0.5000001
v 0.5000001 0.25 -0.6025001
v 0.5 0.25 0.6025001
v 0.4975001 0.25 -0.2500001
v 0.3975001 0.25 -0.5000001
v 0.4975001 0.25 0.2500001
v 0.3975001 0.25 0.5000001
v 0.4975001 1.69198E-17 0.2500001
v 0.3975001 0 0.5000001
v 0.5 0 0.6025001
v 0.4975001 2.349972E-17 -0.2500001
v 0.5000001 -4.511946E-17 -0.6025001
v 0.6025001 0 -0.5000001
v 0.7025001 2.115862E-17 -0.2500001
v 0.3975001 0 -0.5000001
vn 1 0 0
vn -1 0 0
vn -0.7071069 0 -0.7071069
vn 0.7071069 0 -0.7071069
vn -0.928477 0 0.3713908
vn -0.7071069 0 0.7071069
vn 0.928477 0 -0.3713908
vn -0.9284769 0 -0.3713907
vn 0.7071069 0 0.7071069
vn 0.9284769 0 0.3713907
vt -0.6625001 -0.2500001
vt -0.6625001 0.25
vt -0.5625001 -0.5000001
vt -0.5625 0.5000001
vt -0.5375001 -0.2500001
vt -0.5000001 -0.5625001
vt -0.4375001 -0.5000001
vt -0.5375001 0.2500001
vt -0.5000001 0.5625001
vt -0.4375001 0.5000001
vt -0.6625001 -0.25
vt -0.6625001 0.2500001
vt -0.5625 -0.5000001
vt -0.5625001 0.5000001
vt -0.5375001 -0.2500001
vt -0.5000001 -0.5625001
vt -0.4375001 -0.5000001
vt -0.5375001 0.2500001
vt -0.5000001 0.5625001
vt -0.4375001 0.5000001
vt -0.7025002 -0.2500001
vt -0.7025001 0.25
vt -0.6025001 -0.5000001
vt -0.6025 0.5000001
vt -0.5000001 -0.6025001
vt -0.5000001 0.6025001
vt -0.4975001 -0.2500001
vt -0.3975001 -0.5000001
vt -0.4975001 0.2500001
vt -0.3975001 0.5000001
vt -0.5000001 -0.6025001
vt -0.4975001 -0.2500001
vt -0.3975001 -0.5000001
vt -0.4975001 0.2500001
vt -0.5000001 0.6025001
vt -0.6025001 0.5000001
vt -0.6025 -0.5000001
vt -0.7025002 0.2500001
vt -0.7025001 -0.25
vt -0.3975001 0.5000001

usemtl lightStone (Instance) (Instance) (Instance) (Instance) (Instance)
usemap lightStone (Instance) (Instance) (Instance) (Instance) (Instance)
f 67/108/2 66/107/2 65/106/2
f 66/107/2 67/108/2 68/109/2
f 68/109/2 67/108/2 69/110/2
f 69/110/2 67/108/2 70/111/2
f 69/110/2 70/111/2 71/112/2
f 72/113/2 68/109/2 69/110/2
f 68/109/2 72/113/2 73/114/2
f 73/114/2 72/113/2 74/115/2
f 66/37/25 75/36/25 65/35/25
f 75/36/25 66/37/25 76/38/25
f 78/41/26 69/40/26 77/39/26
f 69/40/26 78/41/26 72/42/26
f 80/45/27 70/44/27 79/43/27
f 70/44/27 80/45/27 71/46/27
f 67/47/28 79/43/28 70/44/28
f 79/43/28 67/47/28 81/48/28
f 77/39/29 71/44/29 80/49/29
f 71/44/29 77/39/29 69/40/29
f 83/52/30 74/51/30 82/50/30
f 74/51/30 83/52/30 73/53/30
f 65/35/31 81/50/31 67/51/31
f 81/50/31 65/35/31 75/36/31
f 82/50/32 72/42/32 78/41/32
f 72/42/32 82/50/32 74/51/32
f 73/47/33 84/49/33 68/44/33
f 84/49/33 73/47/33 83/54/33
f 68/44/34 76/38/34 66/37/34
f 76/38/34 68/44/34 84/49/34
f 84/118/1 75/117/1 76/116/1
f 75/117/1 84/118/1 81/119/1
f 81/119/1 84/118/1 78/120/1
f 78/120/1 84/118/1 83/121/1
f 78/120/1 83/121/1 82/122/1
f 77/123/1 81/119/1 78/120/1
f 81/119/1 77/123/1 79/124/1
f 79/124/1 77/123/1 80/125/1

usemtl darkStone (Instance) (Instance) (Instance) (Instance) (Instance)
usemap darkStone (Instance) (Instance) (Instance) (Instance) (Instance)
f 87/67/34 86/66/34 85/65/34
f 86/66/34 87/67/34 88/49/34
f 90/128/2 85/127/2 89/126/2
f 85/127/2 90/128/2 87/129/2
f 87/129/2 90/128/2 91/130/2
f 87/129/2 91/130/2 92/131/2
f 92/131/2 91/130/2 93/132/2
f 93/132/2 91/130/2 94/133/2
f 95/134/2 92/131/2 93/132/2
f 92/131/2 95/134/2 96/135/2
f 98/50/32 95/79/32 97/78/32
f 95/79/32 98/50/32 96/80/32
f 98/138/1 97/137/1 99/136/1
f 100/139/1 99/136/1 97/137/1
f 101/140/1 99/136/1 100/139/1
f 102/141/1 99/136/1 101/140/1
f 102/141/1 88/142/1 99/136/1
f 103/143/1 88/142/1 102/141/1
f 88/142/1 103/143/1 86/144/1
f 101/140/1 100/139/1 104/145/1
f 99/91/30 96/80/30 98/50/30
f 96/80/30 99/91/30 92/92/30
f 92/95/33 88/94/33 87/93/33
f 88/94/33 92/95/33 99/96/33
f 104/98/27 91/67/27 101/97/27
f 91/67/27 104/98/27 94/99/27
f 91/101/28 102/50/28 101/100/28
f 102/50/28 91/101/28 90/80/28
f 85/65/25 103/103/25 89/102/25
f 103/103/25 85/65/25 86/66/25
f 89/102/31 102/50/31 90/80/31
f 102/50/31 89/102/31 103/103/31
f 97/78/26 93/105/26 100/104/26
f 93/105/26 97/78/26 95/79/26
f 100/104/29 94/67/29 104/49/29
f 94/67/29 100/104/29 93/105/29
